<svg width="300" height="551" viewBox="0 0 300 551" fill="none" xmlns="http://www.w3.org/2000/svg">
<g clip-path="url(#clip0_2033_139)">
<path d="M74.4923 0.186374C73.1694 1.30432 71.7906 2.36636 70.4118 3.39114C69.0143 4.41593 67.6169 5.42207 66.2195 6.44685C63.4246 8.47778 60.6484 10.5273 57.9653 12.7073C52.6179 17.0673 47.6803 21.9117 43.2085 27.1474C40.9726 29.756 38.8299 32.4763 36.799 35.2525L36.035 36.2959L35.2897 37.358C34.8053 38.066 34.2836 38.7554 33.8178 39.4821L32.3831 41.6248L30.9857 43.8048L30.6316 44.3451L30.2963 44.9041L29.6255 46.0034L28.9547 47.1027C28.7311 47.4754 28.5075 47.848 28.3026 48.2207L26.9983 50.4565L25.75 52.7111L25.4332 53.27C25.3214 53.4564 25.2282 53.6427 25.1351 53.8476L24.5575 55.0028L23.9799 56.1581C23.7936 56.5493 23.5886 56.922 23.4023 57.3133C22.6942 58.8784 21.9303 60.4249 21.2782 62.0086C19.8994 65.1575 18.7069 68.3809 17.5331 71.6229L16.6946 74.0638C16.5642 74.4737 16.4151 74.8836 16.2847 75.2935L15.8934 76.5232L15.1109 78.9827L14.3842 81.4608L14.0116 82.6906L13.6575 83.9389L12.9681 86.417C12.7445 87.2555 12.521 88.0753 12.2974 88.9138C12.0738 89.7522 11.8502 90.5721 11.6452 91.4105L11.0117 93.9073C10.8068 94.7457 10.6018 95.5842 10.3969 96.4226C9.96832 98.0995 9.59568 99.7765 9.2044 101.453C6.13005 114.906 3.72648 128.508 1.8446 142.202C1.8446 142.202 1.78871 142.296 1.73281 142.296C1.67691 142.296 1.63965 142.24 1.63965 142.184C1.67691 141.327 1.73281 140.451 1.78871 139.594C1.8446 138.737 1.91913 137.861 1.97503 137.004C2.10546 135.271 2.27315 133.557 2.44084 131.824C2.60853 130.11 2.81349 128.377 3.01844 126.663C3.2234 124.949 3.44699 123.235 3.68921 121.502L4.04323 118.931L4.43451 116.359C4.56493 115.502 4.71399 114.645 4.84442 113.788C4.99348 112.931 5.1239 112.074 5.27296 111.217L5.72014 108.664L6.20458 106.111L6.4468 104.826L6.70766 103.559C6.87535 102.702 7.04304 101.863 7.22936 101.006C8.68269 94.224 10.3782 87.4791 12.4837 80.8646L13.2663 78.3865L14.1047 75.927L14.5146 74.6973C14.6637 74.2874 14.8127 73.8774 14.9618 73.4675L15.8562 71.0081C17.0859 67.766 18.3529 64.524 19.8062 61.3565C20.4956 59.7541 21.2782 58.2076 22.0235 56.6239C22.2098 56.2326 22.4148 55.8413 22.6197 55.4687L23.2159 54.3134L23.8122 53.1582C23.9053 52.9719 24.0171 52.767 24.1289 52.5806L24.4457 52.0217L25.7313 49.7485L27.0915 47.5313C27.3151 47.1586 27.5387 46.786 27.7809 46.4133L28.4703 45.314L29.1597 44.2147L29.5137 43.6744L29.8677 43.134L31.3024 40.9727L32.793 38.8299C33.2774 38.1033 33.7991 37.4139 34.3022 36.7058L35.0661 35.6438L35.8487 34.6004C37.9355 31.8242 40.1342 29.1225 42.4259 26.5326C47.0281 21.3341 52.0961 16.5456 57.5554 12.2788C60.2758 10.1361 63.1079 8.12377 65.94 6.14874C67.3561 5.16122 68.7908 4.19234 70.2068 3.18619C71.6229 2.18004 73.0017 1.17389 74.3432 0.0745794C74.3805 0.0373147 74.455 0.0373147 74.4923 0.0745794C74.5295 0.111844 74.5295 0.186374 74.4923 0.223639V0.186374Z" fill="black"/>
<path d="M0.204956 150.606C0.204956 151.556 0.354015 152.525 0.503074 153.475C0.596236 153.941 0.670766 154.425 0.78256 154.891C0.875722 155.357 0.987516 155.841 1.09931 156.307C1.54649 158.189 2.08683 160.034 2.7017 161.86C2.85075 162.307 3.01845 162.773 3.18614 163.22L3.42836 163.891L3.68921 164.561C3.8569 165.008 4.06186 165.456 4.24818 165.903L4.5463 166.555L4.69536 166.89L4.86305 167.207C5.06801 167.636 5.31023 168.064 5.53382 168.493C5.75741 168.921 5.96236 169.368 6.14869 169.816C6.52133 170.71 6.85672 171.623 7.15484 172.555C7.30389 173.02 7.43432 173.486 7.56475 173.952C7.69517 174.418 7.84423 174.884 7.99329 175.331C8.29141 176.244 8.58953 177.157 8.90628 178.07C9.22303 178.983 9.57705 179.877 9.93106 180.771L10.4714 182.113C10.6577 182.56 10.8254 183.026 10.9931 183.473C11.3285 184.386 11.6639 185.299 11.9434 186.231C12.0924 186.697 12.2228 187.162 12.3533 187.628C12.4651 188.094 12.6141 188.56 12.7073 189.044C12.8191 189.51 12.9122 189.994 13.0054 190.479C13.0799 190.963 13.1545 191.448 13.2104 191.932C13.3035 192.901 13.3408 193.889 13.2663 194.876L13.1917 195.621C13.1545 195.864 13.1172 196.106 13.0799 196.348C13.0054 196.833 12.9122 197.298 12.8191 197.783L12.2787 200.634C11.9247 202.534 11.5707 204.435 11.2353 206.335C10.5646 210.136 9.93106 213.956 9.39072 217.775L9.18577 219.21L9.0926 219.918L8.99944 220.645L8.81312 222.079L8.66406 223.514L8.58953 224.241C8.5709 224.483 8.55226 224.725 8.53363 224.967L8.42184 226.402L8.34731 227.837C8.34731 228.079 8.34731 228.321 8.34731 228.545V229.253C8.34731 231.172 8.4591 233.073 8.68269 234.992C8.90628 236.892 9.18577 238.793 9.55841 240.675C10.3037 244.438 11.2912 248.165 12.5769 251.779C12.7446 252.227 12.9122 252.674 13.0799 253.121C13.2476 253.568 13.4339 254.015 13.6203 254.444L13.8998 255.115L14.1979 255.767C14.4028 256.195 14.5892 256.643 14.8127 257.071L17.3095 262.307C18.9678 265.81 20.626 269.294 22.2471 272.815C23.8681 276.337 25.4705 279.84 27.017 283.399C27.7995 285.169 28.5448 286.976 29.2528 288.783C29.9609 290.591 30.6503 292.398 31.3397 294.205L35.4761 305.049C36.8549 308.664 38.2523 312.26 39.7056 315.838C40.4323 317.626 41.1589 319.415 41.9415 321.148C42.3328 322.005 42.7613 322.881 43.1899 323.756L44.4382 326.384C46.0779 329.886 47.6616 333.427 49.2268 336.967C50.7732 340.526 52.3011 344.084 53.6985 347.718L54.2202 349.078C54.4066 349.506 54.5743 349.935 54.7419 350.363L55.3568 351.612L56.0462 352.823C57.0337 354.407 58.2076 355.86 59.5305 357.183C60.164 357.854 60.8906 358.468 61.58 359.083C62.3253 359.661 63.0334 360.257 63.8345 360.779C64.5985 361.338 65.3997 361.822 66.2009 362.307C66.4058 362.437 66.6108 362.549 66.8157 362.661L67.4306 362.996C67.8405 363.22 68.2504 363.462 68.679 363.648L69.946 364.263L70.2627 364.412L70.5981 364.561L71.2502 364.841C71.6788 365.027 72.126 365.213 72.5545 365.4L73.896 365.903C74.7718 366.257 75.6847 366.518 76.5977 366.816L77.2685 367.039C77.4921 367.114 77.7157 367.17 77.9393 367.226L78.61 367.412L79.2994 367.58C82.97 368.437 86.771 368.772 90.572 368.828C94.3917 368.884 98.2113 368.642 102.012 368.195C105.813 367.747 109.596 367.077 113.285 366.145C115.13 365.679 116.955 365.139 118.67 364.431C119.08 364.263 119.527 364.058 119.955 363.853C120.384 363.648 120.831 363.443 121.26 363.238C122.135 362.828 122.992 362.4 123.849 361.971C127.296 360.239 130.688 358.431 134.06 356.568C137.432 354.705 140.786 352.786 144.084 350.792C144.904 350.289 145.724 349.786 146.544 349.283L147.773 348.519C148.183 348.258 148.575 347.997 148.985 347.736C150.606 346.693 152.189 345.612 153.773 344.513C156.922 342.296 160.034 339.985 163.127 337.693L172.424 330.762C175.536 328.452 178.629 326.141 181.74 323.85C184.871 321.558 188.001 319.303 191.206 317.123C191.243 317.086 191.317 317.105 191.355 317.142C191.392 317.179 191.373 317.254 191.336 317.272C190.553 317.85 189.771 318.409 189.007 319.005C188.243 319.583 187.46 320.16 186.696 320.757C185.169 321.93 183.641 323.123 182.113 324.297C179.057 326.682 176.02 329.067 172.983 331.452C166.89 336.221 160.835 341.029 154.593 345.631C153.028 346.767 151.444 347.904 149.823 348.985C149.413 349.245 149.022 349.525 148.612 349.786L147.382 350.587C146.562 351.127 145.743 351.63 144.923 352.152C141.643 354.22 138.29 356.195 134.936 358.114C131.563 360.034 128.154 361.878 124.707 363.667C123.831 364.114 122.974 364.543 122.098 364.971C121.669 365.195 121.222 365.4 120.775 365.605C120.328 365.81 119.899 366.033 119.434 366.22C117.57 367.002 115.688 367.58 113.788 368.083C109.987 369.07 106.13 369.76 102.255 370.244C98.379 370.729 94.4662 370.952 90.5348 370.915C88.5784 370.896 86.6033 370.785 84.6469 370.561C82.6905 370.356 80.7341 370.039 78.7964 369.573L78.0697 369.406L77.343 369.201C77.1008 369.126 76.8586 369.07 76.635 368.996L75.927 368.772C74.9953 368.455 74.0637 368.176 73.1321 367.803L71.7533 367.282C71.3061 367.095 70.8403 366.89 70.3931 366.704L69.7224 366.406L69.387 366.257L69.0516 366.089L67.7287 365.437C67.2815 365.232 66.853 364.971 66.4245 364.729L65.7723 364.375C65.5487 364.245 65.3438 364.133 65.1388 364.002C64.3004 363.462 63.4619 362.959 62.6607 362.363C61.8409 361.804 61.077 361.17 60.2944 360.537C59.5491 359.866 58.8038 359.214 58.1144 358.487C56.717 357.052 55.4686 355.487 54.4252 353.754L53.6799 352.45L53.0278 351.09C52.8228 350.624 52.6551 350.158 52.4688 349.693L51.9657 348.351C50.6056 344.755 49.115 341.196 47.6057 337.656C46.0779 334.116 44.5128 330.576 42.9104 327.073L41.6993 324.446C41.2894 323.57 40.8795 322.713 40.4695 321.8C39.6683 320.011 38.9603 318.204 38.2337 316.415C36.8176 312.819 35.4388 309.186 34.0786 305.571L30.0168 294.708C29.346 292.901 28.6566 291.094 27.9672 289.286C27.2778 287.479 26.5511 285.709 25.7872 283.939C24.278 280.399 22.6942 276.859 21.0919 273.356C19.4895 269.834 17.8685 266.331 16.2288 262.828L13.7693 257.574C13.5644 257.146 13.3594 256.698 13.1545 256.251L12.8563 255.58L12.5769 254.91C12.3905 254.463 12.2042 254.015 12.0365 253.55C11.8688 253.084 11.6825 252.637 11.5334 252.171C10.2478 248.482 9.26029 244.718 8.53363 240.898C8.17962 238.979 7.90013 237.06 7.67654 235.122L7.54612 233.669C7.50885 233.184 7.49022 232.7 7.45295 232.215C7.45295 231.973 7.41569 231.731 7.41569 231.489V230.762C7.37842 230.278 7.37842 229.793 7.37842 229.29V228.564C7.37842 228.321 7.39706 228.079 7.41569 227.837L7.50885 226.384L7.63928 224.93C7.65791 224.688 7.67654 224.446 7.71381 224.204L7.78834 223.477L7.95603 222.024L8.14235 220.589L8.23551 219.862L8.34731 219.136L8.55227 217.701C9.12987 213.863 9.80063 210.062 10.5087 206.261C10.8627 204.36 11.2167 202.46 11.5893 200.559L12.1483 197.708C12.2415 197.242 12.3346 196.758 12.4278 196.292C12.4651 196.05 12.5023 195.826 12.5396 195.584L12.6141 194.876C12.6887 193.926 12.67 192.976 12.5769 192.025C12.5396 191.56 12.4651 191.075 12.3905 190.609C12.2974 190.144 12.2228 189.659 12.111 189.193C12.0179 188.727 11.8875 188.262 11.7757 187.796C11.6452 187.33 11.5148 186.864 11.3844 186.417C11.1049 185.504 10.7882 184.591 10.4714 183.678C10.3037 183.231 10.136 182.784 9.96833 182.318L9.44662 180.976C9.0926 180.082 8.75722 179.169 8.44047 178.237C7.80697 176.411 7.248 174.548 6.72629 172.685C6.44681 171.772 6.13005 170.859 5.75741 169.965C5.57108 169.517 5.38476 169.089 5.1798 168.66C4.97485 168.232 4.75126 167.803 4.52767 167.375L4.35998 167.039L4.21092 166.704L3.9128 166.033C3.72648 165.586 3.54015 165.139 3.37246 164.692L3.11161 164.021L2.86939 163.332C2.7017 162.884 2.55264 162.419 2.40358 161.953C1.80734 160.108 1.267 158.245 0.838457 156.363C0.726663 155.897 0.614869 155.413 0.540339 154.947C0.447177 154.481 0.354015 153.997 0.279486 153.512C0.130427 152.543 0 151.575 0 150.606C0 150.55 0.0372648 150.512 0.0931619 150.512C0.149059 150.512 0.186324 150.55 0.186324 150.606H0.204956Z" fill="black"/>
<path d="M235.215 252.32C236.65 253.419 238.159 254.425 239.836 255.133C239.948 255.171 240.041 255.227 240.153 255.264L240.469 255.376C240.674 255.45 240.898 255.543 241.103 255.599C241.531 255.73 241.96 255.879 242.407 255.953C242.631 256.009 242.836 256.046 243.059 256.102L243.73 256.214L244.065 256.27C244.177 256.27 244.289 256.289 244.401 256.307L245.072 256.363C246.86 256.494 248.668 256.326 250.419 255.953C252.17 255.599 253.885 255.022 255.524 254.295C257.164 253.55 258.729 252.655 260.201 251.649C261.692 250.624 263.108 249.525 264.505 248.37L265.549 247.494L266.573 246.6C266.909 246.302 267.244 246.003 267.579 245.687C267.915 245.389 268.25 245.072 268.586 244.774C269.256 244.159 269.927 243.544 270.579 242.929C271.231 242.314 271.921 241.699 272.573 241.066C273.859 239.836 274.995 238.457 276.039 237.004C277.082 235.551 278.051 234.023 278.983 232.476C280.827 229.365 282.467 226.141 284.069 222.899C284.87 221.278 285.653 219.639 286.435 217.999C287.218 216.359 288.019 214.72 288.876 213.099C289.305 212.279 289.733 211.478 290.218 210.676L290.944 209.503L291.299 208.944C291.41 208.757 291.522 208.552 291.634 208.366C292.51 206.82 293.292 205.217 293.982 203.559C294.671 201.901 295.267 200.224 295.808 198.51C296.329 196.795 296.776 195.063 297.149 193.311C297.503 191.56 297.764 189.79 297.932 188.02C297.969 187.572 297.988 187.144 298.025 186.697C298.025 186.473 298.062 186.249 298.062 186.026V185.355C298.099 184.461 298.062 183.604 298.006 182.728C297.932 181.852 297.82 180.995 297.652 180.138C297.484 179.281 297.28 178.442 297.019 177.604C296.516 175.946 295.826 174.325 294.969 172.834L294.801 172.555L294.634 172.275C294.522 172.089 294.41 171.902 294.28 171.735L293.907 171.213C293.795 171.027 293.646 170.878 293.516 170.691L293.311 170.431C293.311 170.431 293.18 170.263 293.106 170.188C292.957 170.021 292.826 169.853 292.696 169.704C292.398 169.406 292.118 169.089 291.802 168.791C291.653 168.642 291.503 168.493 291.336 168.362C291.168 168.232 291.019 168.083 290.851 167.952C290.516 167.71 290.181 167.449 289.827 167.226C289.473 166.984 289.1 166.797 288.727 166.592C288.355 166.425 287.963 166.22 287.572 166.089C287.181 165.922 286.771 165.81 286.38 165.679C286.175 165.623 285.97 165.586 285.765 165.53L285.467 165.456L285.15 165.4C284.945 165.363 284.74 165.325 284.516 165.288L283.883 165.232C283.771 165.232 283.678 165.213 283.566 165.195H283.249L282.616 165.176H281.982L281.666 165.213C281.554 165.213 281.442 165.232 281.349 165.251L280.697 165.307C280.473 165.325 280.268 165.363 280.045 165.4C279.616 165.456 279.187 165.549 278.778 165.642C278.573 165.679 278.368 165.754 278.144 165.791L277.827 165.866C277.716 165.884 277.622 165.922 277.511 165.959C276.672 166.201 275.871 166.518 275.107 166.89C274.324 167.263 273.579 167.692 272.871 168.195C271.436 169.182 270.151 170.393 269.014 171.735C268.437 172.406 267.915 173.114 267.393 173.84C266.871 174.567 266.387 175.331 265.903 176.095C265.66 176.467 265.418 176.859 265.157 177.25C265.027 177.436 264.896 177.641 264.747 177.828C264.617 178.014 264.449 178.219 264.319 178.387L262.605 180.511C260.294 183.324 258.002 186.138 255.673 188.914C255.636 188.951 255.58 188.97 255.524 188.914C255.487 188.877 255.468 188.821 255.524 188.783C257.63 185.821 259.754 182.877 261.897 179.933L263.499 177.734C263.629 177.548 263.76 177.38 263.872 177.194C263.983 177.008 264.114 176.821 264.226 176.635C264.449 176.244 264.673 175.871 264.896 175.461C265.791 173.878 266.778 172.294 267.915 170.822C268.492 170.095 269.107 169.369 269.778 168.716C270.449 168.046 271.176 167.431 271.939 166.872C272.703 166.313 273.505 165.791 274.362 165.363C275.219 164.934 276.094 164.543 276.989 164.245C277.101 164.207 277.212 164.17 277.324 164.133L277.66 164.04C277.883 163.984 278.125 163.909 278.349 163.853C278.815 163.76 279.281 163.63 279.746 163.555C280.678 163.387 281.628 163.294 282.597 163.257H283.324H283.678C283.79 163.257 283.92 163.257 284.032 163.276L284.759 163.332C285.001 163.369 285.243 163.406 285.485 163.425L285.839 163.481L286.193 163.555C286.435 163.611 286.678 163.648 286.901 163.723C287.367 163.853 287.833 163.984 288.299 164.17C288.765 164.338 289.193 164.543 289.64 164.748C290.069 164.971 290.516 165.195 290.907 165.474C291.336 165.717 291.708 166.015 292.118 166.294C292.305 166.443 292.491 166.592 292.677 166.76C292.864 166.909 293.05 167.077 293.218 167.244C293.385 167.412 293.572 167.561 293.739 167.747L294.242 168.269C294.41 168.456 294.559 168.623 294.708 168.81C294.783 168.903 294.876 168.996 294.95 169.089L295.174 169.368C295.323 169.555 295.472 169.741 295.603 169.946L296.012 170.542C296.143 170.747 296.273 170.952 296.404 171.139L296.59 171.437L296.776 171.753C298.677 175.07 299.72 178.778 299.981 182.56C300.037 183.51 300.037 184.461 300 185.392V186.1C299.963 186.343 299.944 186.566 299.925 186.79C299.888 187.256 299.851 187.721 299.814 188.187C299.609 190.032 299.292 191.858 298.901 193.665C298.491 195.472 298.006 197.243 297.429 198.994C296.851 200.745 296.199 202.46 295.454 204.155C294.727 205.851 293.888 207.49 292.957 209.093C292.845 209.298 292.733 209.503 292.603 209.689L292.23 210.285L291.503 211.422C291.038 212.167 290.609 212.95 290.181 213.751C289.323 215.335 288.522 216.956 287.702 218.577C286.883 220.198 286.081 221.837 285.262 223.458C283.603 226.7 281.908 229.924 279.989 233.054C279.038 234.619 278.032 236.147 276.933 237.619C275.834 239.091 274.641 240.507 273.281 241.774C272.61 242.389 271.939 242.985 271.25 243.6C270.579 244.215 269.89 244.811 269.219 245.426C268.884 245.724 268.53 246.022 268.194 246.32C267.859 246.618 267.505 246.916 267.17 247.215L266.126 248.09L265.064 248.947C263.648 250.084 262.176 251.183 260.648 252.189C259.12 253.196 257.499 254.09 255.822 254.817C254.127 255.543 252.375 256.102 250.568 256.419C248.761 256.754 246.916 256.885 245.09 256.736L244.401 256.661C244.289 256.661 244.177 256.643 244.065 256.624L243.73 256.568L243.059 256.456C242.836 256.4 242.612 256.344 242.388 256.289C241.941 256.195 241.513 256.028 241.066 255.897C240.842 255.823 240.637 255.73 240.432 255.655L240.115 255.525C240.004 255.487 239.91 255.431 239.799 255.376C238.122 254.63 236.612 253.568 235.196 252.432C235.159 252.394 235.141 252.338 235.196 252.283C235.234 252.245 235.29 252.227 235.345 252.283L235.215 252.32Z" fill="black"/>
<path d="M257.388 204.211C257.705 203.186 258.04 202.161 258.394 201.155C258.562 200.652 258.748 200.149 258.934 199.627C259.121 199.124 259.307 198.621 259.493 198.118C260.257 196.106 261.114 194.131 262.083 192.193C262.325 191.709 262.586 191.243 262.847 190.758L263.257 190.05C263.387 189.808 263.518 189.584 263.667 189.342L264.096 188.653L264.207 188.485L264.319 188.317L264.561 187.982C264.729 187.758 264.859 187.535 265.046 187.311L265.549 186.659C265.717 186.436 265.903 186.231 266.089 186.026C266.275 185.821 266.462 185.597 266.648 185.411L267.766 184.237C268.511 183.454 269.275 182.69 270.058 181.945C271.623 180.455 273.244 178.964 275.051 177.678C275.964 177.045 276.933 176.449 277.977 175.983C278.498 175.759 279.039 175.536 279.616 175.387C280.175 175.237 280.771 175.107 281.368 175.051C281.517 175.051 281.666 175.033 281.815 175.014H282.243C282.542 175.014 282.821 175.014 283.119 175.033C283.697 175.07 284.256 175.144 284.815 175.256C285.933 175.48 286.995 175.815 288.019 176.244C289.044 176.672 290.032 177.213 290.945 177.827C291.392 178.144 291.839 178.48 292.249 178.852C292.64 179.225 293.05 179.635 293.292 180.156C293.311 180.212 293.292 180.268 293.237 180.287C293.199 180.306 293.143 180.287 293.125 180.268C292.957 180.063 292.771 179.896 292.547 179.747C292.342 179.597 292.119 179.448 291.895 179.318C291.448 179.057 290.982 178.815 290.498 178.61C289.547 178.181 288.56 177.846 287.554 177.585C286.548 177.324 285.541 177.119 284.535 177.008C284.032 176.952 283.529 176.933 283.045 176.933C282.802 176.933 282.542 176.933 282.299 176.952L281.927 176.989C281.815 176.989 281.703 177.026 281.573 177.026C281.107 177.101 280.641 177.213 280.194 177.343C279.728 177.492 279.281 177.66 278.815 177.865C278.368 178.07 277.902 178.293 277.474 178.535C277.026 178.778 276.579 179.039 276.151 179.299C275.275 179.84 274.418 180.436 273.579 181.069C272.741 181.703 271.94 182.374 271.139 183.082C270.337 183.79 269.573 184.498 268.791 185.243L267.636 186.342C267.449 186.529 267.282 186.715 267.095 186.901C266.909 187.088 266.741 187.274 266.574 187.479L266.071 188.075C265.903 188.28 265.754 188.485 265.586 188.69L265.344 189.007L265.232 189.156L265.12 189.324L264.673 189.976C264.524 190.181 264.375 190.404 264.226 190.628L263.797 191.299C263.518 191.746 263.238 192.193 262.978 192.659C261.916 194.485 260.965 196.404 260.071 198.342C259.847 198.826 259.642 199.311 259.419 199.814C259.214 200.298 258.99 200.801 258.785 201.286C258.375 202.273 257.965 203.261 257.574 204.267C257.556 204.323 257.5 204.341 257.444 204.323C257.388 204.304 257.369 204.248 257.388 204.192V204.211Z" fill="black"/>
<path d="M262.381 192.379C262.921 192.454 263.406 192.696 263.89 192.92C264.356 193.143 264.822 193.423 265.269 193.684C265.716 193.963 266.145 194.243 266.573 194.541C267.002 194.839 267.412 195.156 267.822 195.472C268.232 195.789 268.66 196.087 269.089 196.423C269.499 196.739 269.871 197.112 270.188 197.541C270.505 197.969 270.784 198.435 271.008 198.938C271.12 199.199 271.213 199.46 271.287 199.739C271.324 199.888 271.362 200.037 271.362 200.186C271.362 200.335 271.399 200.503 271.306 200.689C271.287 200.727 271.231 200.764 271.194 200.727C271.194 200.727 271.194 200.727 271.175 200.727L271.12 200.671C270.97 200.522 270.728 200.391 270.523 200.261C270.318 200.13 270.095 199.981 269.89 199.832C269.48 199.553 269.07 199.236 268.697 198.919C268.325 198.603 267.971 198.249 267.673 197.839C267.356 197.447 267.058 197.037 266.722 196.665C266.387 196.292 266.033 195.92 265.698 195.566C265.362 195.193 265.008 194.839 264.635 194.485C264.281 194.131 263.909 193.777 263.536 193.46C263.35 193.292 263.145 193.143 262.959 192.994C262.754 192.845 262.549 192.715 262.325 192.603C262.325 192.603 262.251 192.51 262.288 192.473C262.306 192.435 262.344 192.417 262.4 192.417L262.381 192.379Z" fill="black"/>
<path d="M287.107 208.18C286.082 211.142 285.001 214.086 283.734 216.974C283.101 218.409 282.411 219.844 281.629 221.241C280.846 222.62 279.989 223.98 278.983 225.266C277.958 226.533 276.84 227.762 275.368 228.713L274.399 229.328L274.157 229.477L273.915 229.644C273.766 229.756 273.598 229.849 273.449 229.961C273.132 230.166 272.834 230.39 272.518 230.595C272.201 230.8 271.903 231.023 271.586 231.247C269.108 233.035 266.779 235.048 264.375 237.097C264.375 237.097 264.263 237.135 264.226 237.097C264.189 237.06 264.189 237.023 264.226 236.985C264.599 236.277 265.046 235.607 265.493 234.955C265.717 234.619 265.959 234.302 266.201 233.986L266.574 233.52C266.704 233.371 266.816 233.203 266.947 233.054C267.971 231.843 269.108 230.688 270.338 229.663C270.654 229.402 270.952 229.141 271.288 228.899C271.605 228.657 271.94 228.415 272.275 228.191C272.443 228.079 272.611 227.967 272.797 227.856L273.058 227.688L273.319 227.539L274.362 226.961C275.611 226.309 276.747 225.322 277.753 224.204C278.759 223.086 279.654 221.837 280.492 220.533C281.331 219.247 282.113 217.887 282.84 216.527C283.585 215.167 284.275 213.77 284.945 212.353C285.281 211.645 285.616 210.937 285.933 210.229L286.92 208.105C286.92 208.105 286.995 208.031 287.051 208.049C287.107 208.068 287.125 208.124 287.107 208.18Z" fill="black"/>
<path d="M250.755 207.192C250.643 208.217 250.587 209.242 250.55 210.266C250.494 211.291 250.457 212.316 250.382 213.341C250.308 214.366 250.196 215.409 250.028 216.434C249.842 217.459 249.599 218.502 249.208 219.489L249.059 219.862C249.003 219.993 248.947 220.104 248.891 220.235C248.761 220.477 248.668 220.719 248.5 220.961L248.277 221.315L248.165 221.483L248.053 221.651C247.904 221.874 247.736 222.079 247.569 222.284C246.916 223.123 246.208 223.887 245.519 224.651L243.395 226.887C243.041 227.259 242.705 227.632 242.389 228.004C242.221 228.191 242.072 228.377 241.942 228.563C241.811 228.75 241.681 228.936 241.588 229.104C241.55 229.197 241.513 229.271 241.476 229.346C241.457 229.402 241.457 229.458 241.476 229.439C241.476 229.439 241.476 229.402 241.476 229.365C241.476 229.327 241.438 229.271 241.42 229.253C241.401 229.216 241.383 229.216 241.383 229.216L241.476 229.271C241.774 229.402 242.184 229.458 242.612 229.458C243.06 229.458 243.525 229.383 243.991 229.309C244.457 229.216 244.941 229.122 245.426 228.992C245.91 228.88 246.395 228.75 246.879 228.619L248.37 228.228L249.842 227.855L250.196 227.762L250.55 227.669C250.792 227.613 251.034 227.539 251.276 227.464C252.245 227.185 253.196 226.868 254.164 226.551L257.071 225.582C259.009 224.93 260.965 224.259 262.959 223.7C263.015 223.7 263.071 223.7 263.089 223.775C263.089 223.812 263.089 223.868 263.052 223.887C261.301 224.986 259.493 225.974 257.63 226.905C256.698 227.371 255.767 227.8 254.817 228.228C254.351 228.433 253.866 228.638 253.382 228.843C252.897 229.029 252.413 229.216 251.91 229.402C251.668 229.495 251.407 229.57 251.165 229.663C250.922 229.756 250.662 229.83 250.401 229.905L250.009 230.017L249.637 230.11L248.891 230.296C248.388 230.427 247.885 230.538 247.382 230.65C246.879 230.762 246.357 230.874 245.836 230.967C245.314 231.06 244.792 231.135 244.252 231.209C243.712 231.265 243.153 231.302 242.556 231.265C241.979 231.228 241.345 231.135 240.712 230.818C240.637 230.781 240.563 230.743 240.47 230.688C240.358 230.613 240.246 230.52 240.134 230.389C240.022 230.259 239.929 230.11 239.873 229.942C239.817 229.775 239.799 229.625 239.799 229.476C239.799 229.197 239.873 228.992 239.948 228.806C240.022 228.638 240.097 228.489 240.19 228.34C240.358 228.06 240.526 227.837 240.712 227.632C240.88 227.408 241.066 227.222 241.252 227.017C241.625 226.626 241.979 226.253 242.351 225.899L244.569 223.775C245.295 223.067 246.022 222.359 246.674 221.595C246.842 221.409 246.991 221.222 247.159 221.017L247.27 220.868L247.382 220.719L247.587 220.421C247.736 220.235 247.848 220.011 247.96 219.806C248.016 219.694 248.09 219.601 248.128 219.489L248.277 219.154C248.686 218.26 248.985 217.309 249.227 216.322C249.45 215.334 249.618 214.328 249.749 213.322C249.879 212.316 249.991 211.291 250.121 210.266C250.252 209.242 250.382 208.217 250.55 207.211C250.55 207.155 250.606 207.118 250.662 207.136C250.717 207.136 250.755 207.192 250.736 207.248L250.755 207.192Z" fill="black"/>
<path d="M138.122 355.338C138.457 355.785 138.811 356.233 139.146 356.68C139.463 357.145 139.798 357.593 140.115 358.058L141.047 359.475L141.941 360.909C143.115 362.828 144.27 364.766 145.388 366.723C147.624 370.617 149.804 374.567 152.003 378.48C153.102 380.436 154.201 382.392 155.319 384.349L157.015 387.255L157.853 388.727L158.673 390.199C160.834 394.149 162.865 398.193 164.747 402.292C165.697 404.341 166.61 406.391 167.505 408.459C167.952 409.503 168.399 410.527 168.828 411.571C168.94 411.832 169.051 412.092 169.163 412.353L169.48 413.154C169.685 413.695 169.908 414.217 170.095 414.757C170.281 415.297 170.486 415.838 170.654 416.378L171.157 418.018L171.604 419.676C171.678 419.955 171.753 420.235 171.809 420.514L171.995 421.353C172.126 421.912 172.237 422.471 172.349 423.03L172.517 423.868C172.573 424.148 172.61 424.427 172.666 424.707C172.759 425.266 172.852 425.824 172.927 426.402L173.039 427.241C173.076 427.52 173.113 427.8 173.15 428.079C173.393 430.352 173.56 432.607 173.598 434.88C173.635 437.153 173.598 439.426 173.43 441.681C173.281 443.935 173.02 446.19 172.666 448.426C172.48 449.543 172.293 450.661 172.051 451.761C171.809 452.86 171.567 453.959 171.25 455.059C171.25 455.115 171.175 455.152 171.12 455.133C171.064 455.133 171.045 455.077 171.045 455.021C171.138 454.462 171.213 453.903 171.269 453.344C171.343 452.786 171.399 452.227 171.455 451.668C171.567 450.55 171.678 449.432 171.734 448.314C171.809 447.196 171.883 446.078 171.921 444.96C171.958 443.842 171.995 442.724 171.995 441.606C171.995 441.047 171.995 440.488 171.995 439.929L171.958 438.252L171.902 436.575L171.809 434.917C171.678 432.7 171.455 430.483 171.138 428.284C171.101 428.004 171.064 427.744 171.026 427.464L170.896 426.644C170.821 426.104 170.71 425.545 170.616 425.005L170.467 424.185L170.3 423.365C170.188 422.825 170.076 422.284 169.946 421.744C169.461 419.583 168.884 417.459 168.176 415.353C168.008 414.831 167.822 414.31 167.635 413.788L167.356 413.005C167.263 412.745 167.151 412.484 167.058 412.223C166.666 411.179 166.256 410.136 165.828 409.093C164.989 407.006 164.132 404.938 163.238 402.888C161.449 398.789 159.53 394.727 157.462 390.758L156.679 389.268L155.878 387.796L154.257 384.852C153.177 382.877 152.133 380.883 151.09 378.89C149.003 374.902 146.953 370.915 144.829 366.946C143.767 364.971 142.687 362.996 141.569 361.058L140.711 359.605L139.836 358.17C139.538 357.704 139.221 357.239 138.923 356.754C138.606 356.288 138.271 355.841 137.954 355.375C137.954 355.375 137.935 355.264 137.973 355.226C138.01 355.189 138.084 355.208 138.103 355.245L138.122 355.338Z" fill="black"/>
<path d="M110.024 308.459C110.024 308.459 109.931 308.329 109.875 308.254C109.801 308.18 109.726 308.124 109.652 308.049C109.503 307.919 109.316 307.807 109.149 307.677C108.813 307.453 108.459 307.23 108.105 307.006C107.397 306.577 106.67 306.167 105.944 305.758C104.491 304.956 103.019 304.174 101.547 303.41C98.6027 301.882 95.6215 300.391 92.6589 298.901L83.7154 294.504C80.7342 293.05 77.7158 291.653 74.6601 290.386C73.1322 289.752 71.5857 289.175 70.0206 288.672C69.238 288.429 68.4555 288.206 67.6729 288.038C67.2816 287.945 66.8904 287.889 66.4991 287.833C66.3127 287.815 66.1078 287.796 65.9215 287.777C65.7165 287.777 65.5302 287.759 65.3252 287.777C63.7229 287.759 62.1205 288.001 60.5553 288.429C59.7728 288.634 58.9902 288.877 58.189 289.137C57.7791 289.249 57.3692 289.38 56.9407 289.473C56.5121 289.566 56.0463 289.659 55.5432 289.641C55.4128 289.641 55.2824 289.622 55.152 289.603C55.0402 289.585 54.9097 289.566 54.7979 289.529C54.5743 289.473 54.3508 289.417 54.1458 289.361C53.7359 289.231 53.326 289.1 52.9347 288.97C52.1521 288.709 51.3882 288.448 50.6057 288.262C50.2144 288.169 49.8417 288.094 49.4504 288.038C49.2641 288.001 49.0592 288.001 48.8728 287.982C48.6865 287.982 48.4816 287.964 48.2952 287.964C47.5313 287.964 46.786 288.075 46.078 288.299C45.37 288.541 44.6992 288.895 44.0843 289.342C43.7676 289.566 43.4881 289.808 43.2086 290.088C42.9477 290.349 42.7055 290.609 42.4819 290.926C42.0348 291.522 41.6807 292.23 41.3826 292.938C41.0845 293.665 40.8423 294.41 40.6746 295.193C40.3206 296.739 40.1901 298.342 40.3019 299.907C40.3578 300.69 40.4883 301.453 40.6932 302.199C40.8982 302.925 41.1777 303.633 41.5689 304.248C41.6621 304.397 41.7739 304.546 41.8857 304.677L41.9602 304.789L42.0161 304.863H42.0348L42.0534 304.9H42.0907C42.1838 304.994 42.3329 305.068 42.4819 305.143C42.631 305.217 42.7987 305.273 42.985 305.348C43.693 305.59 44.4756 305.776 45.2582 305.944C46.8419 306.261 48.4816 306.466 50.1026 306.652C51.7422 306.838 53.3819 306.987 55.0402 307.099C56.6798 307.23 58.3381 307.341 59.9964 307.434C61.6547 307.546 63.3129 307.621 64.9526 307.714C66.6109 307.807 68.2691 307.882 69.9274 307.938C73.244 308.087 76.5606 308.198 79.8771 308.31C83.1937 308.422 86.5103 308.497 89.8268 308.571L94.8017 308.664C96.4599 308.701 98.1182 308.72 99.7765 308.739C101.435 308.757 103.093 308.776 104.751 308.776C105.59 308.776 106.41 308.776 107.248 308.757C108.068 308.757 108.906 308.72 109.726 308.664C109.726 308.664 109.838 308.701 109.838 308.757C109.838 308.813 109.801 308.851 109.745 308.869C108.087 309.13 106.428 309.26 104.77 309.391C103.112 309.521 101.453 309.596 99.7765 309.689C98.1182 309.764 96.4413 309.838 94.783 309.894C93.1247 309.95 91.4478 309.987 89.7896 310.024L87.2928 310.08H84.7961C83.1378 310.118 81.4609 310.118 79.8026 310.136C76.4674 310.136 73.1508 310.08 69.8156 310.006C68.1574 309.95 66.4804 309.913 64.8222 309.838C63.1639 309.764 61.487 309.67 59.8287 309.577C56.4935 309.372 53.1769 309.093 49.8417 308.664C48.1834 308.441 46.5065 308.198 44.8482 307.826C44.0098 307.639 43.1713 307.434 42.3142 307.118C42.1093 307.043 41.8857 306.95 41.6621 306.838C41.4385 306.726 41.2149 306.596 40.9727 306.428L40.8795 306.354L40.7864 306.279C40.7864 306.279 40.7305 306.223 40.6932 306.205L40.6001 306.112C40.6001 306.112 40.5069 306 40.4696 305.944L40.3578 305.795C40.2088 305.608 40.0784 305.404 39.9666 305.217C39.4821 304.416 39.1467 303.559 38.9231 302.683C38.6996 301.807 38.5691 300.932 38.5132 300.056C38.4201 298.305 38.5878 296.553 39.0163 294.858C39.2213 294.019 39.5008 293.181 39.8548 292.361C40.2088 291.56 40.6187 290.758 41.1777 290.032C41.4385 289.659 41.7739 289.324 42.1093 289.007C42.4447 288.709 42.7801 288.429 43.1527 288.169C43.8794 287.647 44.6992 287.218 45.5749 286.939C46.4506 286.678 47.3636 286.548 48.258 286.566C48.4816 286.566 48.7051 286.585 48.9287 286.603C49.1523 286.622 49.3759 286.641 49.5809 286.678C50.028 286.734 50.4566 286.827 50.8665 286.939C51.705 287.144 52.5248 287.423 53.3073 287.721C53.6986 287.852 54.0899 288.001 54.4626 288.113C54.6489 288.169 54.8352 288.224 55.0215 288.262C55.1147 288.28 55.1892 288.299 55.2824 288.318C55.3569 288.318 55.4314 288.336 55.506 288.336C55.8227 288.355 56.1954 288.299 56.568 288.224C56.9407 288.15 57.3319 288.038 57.7232 287.926C58.5058 287.703 59.3256 287.461 60.1454 287.256C61.7851 286.846 63.5179 286.603 65.2507 286.641C65.4743 286.641 65.6792 286.659 65.9028 286.678C66.1264 286.697 66.35 286.715 66.555 286.753C66.9835 286.808 67.4121 286.902 67.822 286.995C68.6604 287.181 69.4616 287.423 70.2628 287.703C71.8652 288.243 73.4117 288.858 74.9582 289.529C78.0325 290.852 81.0137 292.324 83.9762 293.833L92.8453 298.398C95.7892 299.926 98.7331 301.472 101.658 303.074C103.112 303.876 104.565 304.677 106 305.534C106.726 305.963 107.434 306.391 108.142 306.838C108.496 307.062 108.85 307.285 109.186 307.546C109.354 307.677 109.521 307.788 109.689 307.938C109.763 308.012 109.857 308.087 109.931 308.161C110.006 308.254 110.08 308.31 110.136 308.459C110.136 308.515 110.136 308.571 110.062 308.59C109.987 308.608 109.95 308.59 109.931 308.515L110.024 308.459Z" fill="black"/>
<path d="M110.23 308.366C110.174 308.627 110.08 308.85 109.969 309.074C109.857 309.298 109.745 309.521 109.615 309.726C109.372 310.155 109.093 310.565 108.813 310.956C108.255 311.757 107.658 312.54 107.025 313.285C105.776 314.794 104.435 316.229 103.056 317.608C100.261 320.347 97.2241 322.862 93.9821 325.061C90.7214 327.259 87.2372 329.16 83.548 330.576C79.8587 331.992 75.9459 332.923 71.9772 333.184C70.9897 333.24 69.9836 333.277 68.9961 333.259L67.5055 333.222L66.0149 333.128C65.5118 333.11 65.0274 333.035 64.5243 332.979C64.0212 332.923 63.5368 332.868 63.0337 332.774C62.5493 332.681 62.0462 332.607 61.5617 332.514L60.0898 332.197C59.8476 332.141 59.6053 332.066 59.3631 332.01L58.6365 331.805C58.152 331.675 57.6676 331.507 57.2018 331.34L56.4937 331.097L55.7857 330.818C55.3199 330.632 54.8541 330.445 54.4069 330.222C53.4939 329.793 52.5996 329.327 51.7238 328.806L51.0903 328.396C50.8854 328.265 50.6618 328.135 50.4568 327.986L49.842 327.557C49.637 327.408 49.4321 327.278 49.2271 327.11C47.6247 325.88 46.1528 324.464 44.9044 322.881C43.656 321.297 42.5753 319.564 41.7928 317.701C41.0289 315.838 40.5258 313.844 40.4326 311.832V311.086C40.4326 310.956 40.4326 310.844 40.4326 310.714V310.341C40.4699 309.838 40.563 309.335 40.6376 308.85C40.8425 307.863 41.1406 306.913 41.5692 306.037C41.5878 305.981 41.6624 305.962 41.6996 306C41.7369 306.018 41.7741 306.074 41.7555 306.111C41.476 307.043 41.2897 307.993 41.2152 308.925C41.1779 309.875 41.2152 310.825 41.3456 311.757C41.4947 312.689 41.6996 313.62 41.9977 314.496L42.1095 314.831L42.1654 314.999L42.2213 315.167L42.4822 315.819C42.5567 316.042 42.6685 316.247 42.7617 316.471C42.8548 316.676 42.9666 316.9 43.0598 317.105C44.774 320.458 47.3825 323.29 50.4196 325.489C53.4567 327.688 56.9409 329.253 60.5742 330.278L61.953 330.632C62.4188 330.743 62.8846 330.818 63.3504 330.93C63.8163 331.042 64.2821 331.097 64.7479 331.172C65.2137 331.247 65.6795 331.321 66.1639 331.358L67.58 331.507L69.0147 331.582C69.9649 331.638 70.9152 331.619 71.8654 331.582C75.6665 331.414 79.4488 330.613 83.0635 329.327C86.6782 328.042 90.1438 326.29 93.4045 324.222C96.6652 322.154 99.7581 319.788 102.609 317.16C104.044 315.838 105.404 314.459 106.689 313.005C107.342 312.279 107.956 311.533 108.534 310.769C108.832 310.378 109.112 309.987 109.372 309.577C109.503 309.372 109.633 309.167 109.745 308.962C109.857 308.757 109.969 308.534 110.025 308.31C110.025 308.31 110.099 308.217 110.155 308.235C110.211 308.235 110.248 308.31 110.23 308.347V308.366Z" fill="black"/>
<path d="M194.28 408.403C193.963 410.62 193.591 412.819 193.181 415.018C192.752 417.216 192.249 419.396 191.69 421.558C191.131 423.719 190.479 425.862 189.752 427.986C189.026 430.11 188.224 432.197 187.311 434.246C185.486 438.345 183.306 442.296 180.622 445.929C177.958 449.544 174.791 452.841 171.157 455.543C169.35 456.885 167.412 458.096 165.4 459.121C163.406 460.164 161.338 461.077 159.251 461.915C155.077 463.592 150.811 464.99 146.562 466.35C142.296 467.691 138.029 468.996 133.781 470.375C129.532 471.753 125.322 473.188 121.167 474.772L119.601 475.368C119.08 475.573 118.558 475.778 118.055 475.983C117.011 476.393 115.987 476.821 114.962 477.25C112.912 478.107 110.881 479.001 108.869 479.952C106.857 480.883 104.863 481.871 102.888 482.877L101.416 483.659C100.932 483.92 100.429 484.181 99.9629 484.461C98.994 485.001 98.0251 485.541 97.0935 486.119C96.6277 486.398 96.1432 486.678 95.6774 486.976L94.28 487.87L93.5906 488.317L92.9012 488.783L91.541 489.715L90.1995 490.684L89.5287 491.168C89.3051 491.336 89.1002 491.504 88.8766 491.671L87.5723 492.678L86.2867 493.721L85.6532 494.243C85.4482 494.41 85.2433 494.597 85.0197 494.783L83.7713 495.864C83.3614 496.236 82.9701 496.609 82.5602 496.982L81.964 497.541C81.759 497.727 81.5727 497.932 81.3677 498.118L80.1939 499.273C79.8026 499.665 79.43 500.075 79.0573 500.466L78.4797 501.062C78.2934 501.267 78.1071 501.472 77.9208 501.677L76.8214 502.907L75.7594 504.174L75.2191 504.807C75.0514 505.012 74.8837 505.236 74.6974 505.459L73.6726 506.764C73.3372 507.211 73.0204 507.639 72.6851 508.086L72.182 508.757C72.0143 508.981 71.8652 509.204 71.6975 509.428L70.7473 510.788C70.4305 511.235 70.1324 511.72 69.8343 512.167C69.5362 512.633 69.2194 513.08 68.9399 513.564C66.5736 517.31 64.4682 521.204 62.5677 525.228C58.7667 533.259 55.7668 541.681 53.1024 550.214C53.1024 550.27 53.0279 550.289 52.972 550.289C52.9161 550.289 52.8975 550.214 52.8975 550.177C55.0029 541.494 57.686 532.905 61.2634 524.669C61.487 524.148 61.7106 523.645 61.9528 523.123L62.6608 521.595L63.4061 520.086L63.7788 519.322C63.9092 519.061 64.0396 518.819 64.1701 518.577L64.9526 517.086C65.2135 516.583 65.493 516.098 65.7538 515.595L66.1637 514.85C66.2941 514.608 66.4432 514.366 66.5736 514.123L67.4307 512.67C67.7102 512.186 68.0083 511.701 68.3251 511.235C68.6232 510.751 68.9213 510.285 69.2381 509.801L70.1883 508.403C70.356 508.161 70.5051 507.937 70.6728 507.695L71.1758 507.006C71.5112 506.54 71.828 506.093 72.1633 505.627L73.1881 504.285C73.3558 504.062 73.5235 503.838 73.7098 503.615L74.2502 502.963L75.3309 501.658C81.1814 494.746 88.2804 488.895 96.106 484.386C97.0748 483.808 98.0624 483.268 99.0499 482.728C99.5343 482.448 100.056 482.206 100.54 481.945L102.05 481.181C104.062 480.194 106.093 479.225 108.142 478.312C110.192 477.38 112.26 476.523 114.328 475.666C115.372 475.256 116.415 474.828 117.459 474.436C117.98 474.231 118.502 474.026 119.024 473.84L120.608 473.263C124.818 471.716 129.067 470.319 133.352 468.996C137.619 467.654 141.923 466.406 146.19 465.12C150.457 463.816 154.705 462.474 158.841 460.872C162.978 459.251 167.002 457.369 170.58 454.761C174.157 452.171 177.306 449.003 179.989 445.482C182.672 441.96 184.908 438.085 186.771 434.041C187.703 432.029 188.523 429.961 189.286 427.855C190.032 425.75 190.721 423.645 191.317 421.483C191.914 419.34 192.454 417.16 192.92 414.98C193.386 412.8 193.777 410.602 194.131 408.403C194.131 408.347 194.187 408.31 194.243 408.31C194.299 408.31 194.336 408.366 194.336 408.422L194.28 408.403Z" fill="black"/>
<path d="M26.365 49.8976C28.2096 49.4877 29.9797 48.7424 31.638 47.8481C33.3149 46.9537 34.8987 45.9103 36.4638 44.8296C38.0289 43.749 39.5754 42.631 41.1219 41.5131C42.6684 40.3951 44.2149 39.2772 45.78 38.1965C47.3637 37.1158 48.9475 36.0724 50.5871 35.0663C50.997 34.8054 51.407 34.5818 51.8169 34.3396C52.2268 34.0974 52.6367 33.8552 53.0652 33.6316L54.3136 32.9422C54.7422 32.7186 55.1707 32.495 55.5806 32.29L56.2141 31.9547C56.4191 31.8429 56.6427 31.7497 56.8663 31.6379L58.1705 31.023L59.4934 30.4454L60.1455 30.166C60.3691 30.0728 60.5927 29.9983 60.8163 29.9051L62.1578 29.3834C62.605 29.2157 63.0522 29.0666 63.518 28.899C64.4124 28.5636 65.344 28.3027 66.257 28.0232C66.7042 27.8742 67.1886 27.7624 67.6358 27.6506L69.0332 27.2966L70.4306 26.9984C70.8964 26.9053 71.3622 26.7935 71.8467 26.719L73.2627 26.4767C73.505 26.4395 73.7286 26.3836 73.9708 26.3649L74.6788 26.2718L76.1135 26.0855L76.4675 26.0482L76.8215 26.0109L77.5296 25.955L78.9643 25.8432C79.4487 25.806 79.9145 25.806 80.399 25.7873L81.8336 25.7314H83.2683H86.1377C86.6222 25.7314 87.088 25.7314 87.5724 25.7314L89.0071 25.7687C96.6464 25.9178 104.286 26.5326 111.832 27.781L112.54 27.8928L113.248 28.0232L114.664 28.3027L116.08 28.5822L116.788 28.7126L117.142 28.7872L117.496 28.8617L120.291 29.5138C120.757 29.6256 121.223 29.7188 121.688 29.8492L123.067 30.2405L125.843 31.0044L128.582 31.8801L129.942 32.3273C130.39 32.495 130.837 32.6627 131.284 32.8304L133.986 33.8365L136.631 34.9545L137.954 35.5134L139.259 36.1283L141.849 37.3581L144.383 38.6996C144.811 38.9232 145.24 39.1468 145.65 39.3703L146.898 40.097L148.146 40.8237L148.761 41.1963C148.966 41.3268 149.171 41.4385 149.376 41.569L154.165 44.6806C157.351 46.7115 160.705 48.463 164.114 50.1212C167.524 51.7795 171.008 53.326 174.492 54.8539C177.977 56.3817 181.48 57.8723 184.964 59.4374C188.448 61.0025 191.914 62.6236 195.286 64.4868C196.125 64.9526 196.963 65.4371 197.783 65.9588C198.603 66.4805 199.423 67.0208 200.205 67.5984C200.988 68.176 201.752 68.8095 202.478 69.4989C203.186 70.1883 203.876 70.9709 204.416 71.8652C204.491 71.977 204.547 72.0888 204.621 72.2192C204.677 72.331 204.751 72.4428 204.807 72.5733C204.919 72.8155 205.031 73.0577 205.124 73.3185C205.31 73.8216 205.422 74.3806 205.46 74.9396C205.46 75.2191 205.478 75.4985 205.46 75.778V75.983C205.46 75.983 205.422 76.1134 205.404 76.1879L205.329 76.5979C205.31 76.7283 205.255 76.8587 205.217 76.9891L205.161 77.1941C205.161 77.1941 205.124 77.3245 205.105 77.3804C205.031 77.604 204.938 77.8276 204.863 78.0512C204.248 79.8213 203.708 81.6286 203.205 83.4546C202.217 87.1065 201.454 90.8144 200.839 94.5408C200.242 98.2673 199.814 102.031 199.628 105.795C199.441 109.559 199.497 113.322 199.926 117.049C200.131 118.912 200.447 120.738 200.876 122.545C201.1 123.44 201.342 124.334 201.621 125.21C201.919 126.085 202.236 126.943 202.59 127.781C202.944 128.619 203.373 129.439 203.82 130.222C204.267 131.004 204.77 131.768 205.31 132.495C206.447 133.967 207.677 135.383 208.962 136.762C211.534 139.501 214.329 142.053 217.179 144.532C220.03 147.028 222.993 149.432 225.862 151.984C227.297 153.27 228.713 154.574 230.036 156.028C230.706 156.754 231.34 157.518 231.917 158.357C232.197 158.785 232.476 159.214 232.719 159.68C232.961 160.145 233.166 160.649 233.296 161.189C233.445 161.729 233.52 162.307 233.464 162.884C233.427 163.481 233.259 164.058 232.998 164.58L232.849 164.878C232.849 164.878 232.775 165.064 232.719 165.158C232.681 165.251 232.644 165.363 232.607 165.456C232.57 165.549 232.532 165.661 232.514 165.754C232.383 166.164 232.29 166.611 232.197 167.039C232.029 167.934 231.936 168.847 231.899 169.778C231.843 170.71 231.824 171.642 231.843 172.573C231.862 174.455 231.992 176.337 232.141 178.219C232.309 180.101 232.514 181.983 232.756 183.864C233.24 187.628 233.874 191.373 234.563 195.118C235.253 198.864 236.017 202.59 236.855 206.298C237.06 207.229 237.265 208.161 237.489 209.074C237.6 209.54 237.712 210.006 237.824 210.472L238.122 211.888L238.271 212.596C238.308 212.838 238.346 213.061 238.402 213.304L238.644 214.72C238.7 215.204 238.756 215.67 238.83 216.154C238.849 216.397 238.886 216.639 238.905 216.862L238.961 217.589C239.11 219.508 239.128 221.427 238.923 223.347L238.83 224.055L238.793 224.409L238.737 224.763L238.607 225.471L238.439 226.179C238.383 226.421 238.308 226.644 238.253 226.868C238.197 227.092 238.122 227.334 238.029 227.557C237.88 228.023 237.712 228.452 237.47 228.899C237.451 228.955 237.377 228.973 237.34 228.936C237.284 228.918 237.265 228.843 237.302 228.806C237.507 228.377 237.656 227.93 237.787 227.483C237.861 227.259 237.917 227.036 237.973 226.794C238.029 226.57 238.085 226.328 238.122 226.104L238.253 225.415L238.346 224.707L238.402 224.353L238.439 223.999L238.495 223.291C238.625 221.409 238.551 219.508 238.346 217.626L238.271 216.918C238.234 216.676 238.197 216.453 238.159 216.21C238.085 215.744 238.029 215.279 237.936 214.813L237.656 213.415C237.6 213.192 237.563 212.95 237.507 212.726L237.34 212.037L237.004 210.658C236.892 210.192 236.762 209.745 236.631 209.279C236.389 208.347 236.147 207.434 235.923 206.503C234.079 199.087 232.476 191.634 231.321 184.051C230.762 180.268 230.296 176.449 230.185 172.592C230.166 171.623 230.166 170.654 230.185 169.685C230.222 168.716 230.296 167.729 230.483 166.741C230.557 166.238 230.669 165.754 230.818 165.251C230.855 165.12 230.893 165.009 230.93 164.878C230.967 164.748 231.005 164.636 231.06 164.505C231.116 164.375 231.154 164.263 231.209 164.133L231.303 163.946L231.34 163.853L231.377 163.797C231.694 163.127 231.731 162.4 231.508 161.636C231.396 161.245 231.247 160.872 231.042 160.499C230.837 160.127 230.613 159.754 230.352 159.382C229.831 158.655 229.253 157.947 228.62 157.276C227.353 155.916 225.955 154.668 224.539 153.419C221.688 150.941 218.707 148.556 215.8 146.059C212.894 143.563 210.043 140.991 207.379 138.178C206.037 136.78 204.77 135.308 203.578 133.762C202.963 132.961 202.422 132.122 201.919 131.265C201.435 130.408 200.969 129.514 200.578 128.601C200.187 127.688 199.833 126.775 199.534 125.843C199.236 124.912 198.975 123.961 198.752 123.011C198.305 121.111 197.988 119.191 197.764 117.254C197.336 113.397 197.317 109.521 197.541 105.664C197.764 101.807 198.23 97.9878 198.864 94.2055C199.516 90.4231 200.336 86.6593 201.36 82.9515C201.882 81.1069 202.441 79.2623 203.093 77.4363C203.168 77.2127 203.261 76.9891 203.335 76.7469C203.354 76.691 203.373 76.6351 203.391 76.5979L203.429 76.4488C203.447 76.3556 203.503 76.2625 203.503 76.1693L203.559 75.8712C203.559 75.8712 203.578 75.778 203.578 75.7221V75.5731C203.615 75.3867 203.615 75.1818 203.615 74.9955C203.578 74.6042 203.522 74.2129 203.373 73.8216C203.317 73.6353 203.224 73.449 203.149 73.244C203.112 73.1509 203.056 73.0577 203 72.9645C202.944 72.8714 202.907 72.7782 202.851 72.685C202.404 71.9584 201.826 71.269 201.193 70.6355C200.541 70.002 199.833 69.4058 199.106 68.8468C198.361 68.2878 197.597 67.7661 196.814 67.263C196.032 66.7599 195.212 66.2755 194.392 65.8097C191.113 63.9651 187.684 62.3254 184.219 60.7417C180.753 59.1579 177.269 57.6487 173.784 56.0836C170.3 54.5371 166.816 52.9534 163.388 51.2578C161.673 50.4007 159.978 49.5436 158.282 48.612C156.605 47.6804 154.947 46.7301 153.326 45.6681L148.556 42.5192C148.37 42.3888 148.146 42.277 147.96 42.1466L147.345 41.7739L146.134 41.0473L144.923 40.3206C144.513 40.0784 144.084 39.8734 143.675 39.6498L141.178 38.3083L138.625 37.0786L137.34 36.4637L136.035 35.9047L133.427 34.7868L130.762 33.7806C130.315 33.6129 129.887 33.4453 129.439 33.2776L128.098 32.8304L125.396 31.936L122.657 31.1535L121.297 30.7622C120.831 30.6318 120.384 30.5386 119.918 30.4268L117.161 29.756L116.807 29.6815L116.453 29.607L115.763 29.4579L114.366 29.1784L112.968 28.899L112.279 28.7499L111.571 28.6381C104.099 27.3338 96.4973 26.6631 88.8953 26.4395L87.4793 26.3836C86.9948 26.3836 86.529 26.3836 86.0446 26.3836H83.1938L81.7591 26.3649L80.3431 26.4022C79.8772 26.4022 79.3928 26.4208 78.927 26.4581L77.5109 26.5699L76.8029 26.6258H76.4489L76.0949 26.7003L74.6788 26.868L73.9708 26.9425C73.7286 26.9798 73.505 27.0171 73.2627 27.0543L71.8653 27.2779C71.3995 27.3525 70.9337 27.4456 70.4679 27.5388L69.0705 27.8183L67.6917 28.1723C67.2259 28.2841 66.7787 28.3959 66.3129 28.5449C65.3999 28.8244 64.4869 29.0666 63.5925 29.3834C63.1454 29.5325 62.6982 29.6815 62.251 29.8492L60.9281 30.3523C60.7045 30.4454 60.4809 30.52 60.2573 30.6131L59.6052 30.8926L58.3009 31.4516L57.0153 32.0478C56.7917 32.141 56.5868 32.2528 56.3632 32.3459L55.7297 32.6627C55.3011 32.8863 54.8726 33.0912 54.4627 33.3148L53.2143 33.9856C52.7858 34.2092 52.3945 34.4514 51.9659 34.6936C51.556 34.9358 51.1461 35.1594 50.7362 35.4203C49.0965 36.3892 47.5128 37.4326 45.929 38.4946C44.3453 39.5567 42.7988 40.656 41.2337 41.7553C39.6872 42.8546 38.1221 43.9725 36.5383 45.0346C34.9546 46.0966 33.3335 47.1214 31.6566 48.0158C29.9611 48.9101 28.1724 49.6554 26.2905 50.0467C26.2346 50.0467 26.1787 50.0281 26.1787 49.9722C26.1787 49.9163 26.1973 49.8604 26.2532 49.8604L26.365 49.8976Z" fill="black"/>
<path d="M80.2493 269.946C80.7897 269.76 81.33 269.536 81.8517 269.294C82.3734 269.052 82.8951 268.809 83.3982 268.53C84.423 267.99 85.3919 267.375 86.3049 266.685C87.2178 265.996 88.0563 265.251 88.8016 264.412C89.5469 263.592 90.1804 262.679 90.6462 261.692C90.8884 261.207 91.0747 260.704 91.2238 260.183C91.3729 259.661 91.466 259.139 91.5219 258.618C91.5965 258.096 91.6151 257.556 91.6151 257.034C91.6151 256.773 91.6151 256.493 91.6151 256.233C91.6151 255.972 91.6151 255.692 91.5778 255.431C91.5033 254.351 91.3356 253.251 91.0934 252.152C90.8512 251.053 90.553 249.935 90.2549 248.761C90.2549 248.705 90.2736 248.649 90.3295 248.631C90.3667 248.631 90.404 248.631 90.4413 248.668C91.2424 249.562 91.9132 250.587 92.4349 251.668C92.9566 252.767 93.3665 253.941 93.5715 255.171C93.6274 255.487 93.6646 255.785 93.6833 256.102C93.6833 256.419 93.7206 256.736 93.7019 257.052C93.7019 257.369 93.6646 257.686 93.646 258.003C93.6088 258.319 93.5529 258.636 93.4783 258.934C93.3293 259.549 93.1429 260.164 92.9007 260.742C92.6585 261.319 92.379 261.897 92.0623 262.437C91.4288 263.518 90.6462 264.487 89.7518 265.325C88.8575 266.164 87.8886 266.872 86.8638 267.505C85.839 268.12 84.7584 268.642 83.6591 269.089C82.5598 269.518 81.4418 269.89 80.2866 270.132C80.2307 270.132 80.1748 270.114 80.1748 270.058C80.1748 270.002 80.1748 269.965 80.2493 269.946Z" fill="black"/>
<path d="M57.8533 270.784C56.4745 270.542 55.1143 270.225 53.7541 269.871C52.394 269.517 51.0524 269.107 49.7295 268.642C48.4066 268.176 47.1024 267.654 45.8167 267.058C44.5497 266.462 43.3014 265.791 42.1275 264.971L41.699 264.673L41.2704 264.356L41.0655 264.189L40.8605 264.021L40.4506 263.685C40.3202 263.574 40.1898 263.443 40.0593 263.313C39.9289 263.182 39.7985 263.071 39.6681 262.94L39.2954 262.549C39.1836 262.418 39.0718 262.269 38.9414 262.139L38.7737 261.934C38.7737 261.934 38.6619 261.785 38.606 261.71L38.2893 261.282C38.1029 260.984 37.898 260.686 37.7116 260.369C37.339 259.754 37.0409 259.102 36.78 258.431C36.2583 257.09 35.9416 255.674 35.7925 254.257C35.6435 252.823 35.6621 251.388 35.8111 249.972C35.8857 249.264 35.9975 248.556 36.1465 247.848C36.277 247.14 36.4633 246.451 36.6496 245.761C37.0409 244.382 37.544 243.041 38.1588 241.755C38.2334 241.587 38.3079 241.438 38.401 241.271L38.6433 240.805C38.7923 240.488 38.96 240.19 39.0904 239.873C39.2395 239.557 39.3886 239.24 39.519 238.942L39.9289 237.991C40.4692 236.724 40.9723 235.42 41.4568 234.116C42.4256 231.507 43.32 228.862 44.2144 226.216L44.8851 224.222L45.0528 223.719L45.146 223.477L45.2205 223.235L45.3696 222.75C45.4255 222.582 45.4627 222.433 45.5186 222.266L45.7981 221.278L46.059 220.272C46.2266 219.601 46.3757 218.93 46.5434 218.241C47.7731 212.819 48.7979 207.323 49.6364 201.826C49.7295 201.137 49.8413 200.447 49.9345 199.758C50.0277 199.068 50.1208 198.379 50.214 197.69L50.3444 196.665L50.4003 196.143L50.4562 195.621L50.5494 194.597C50.5866 194.261 50.6053 193.926 50.6239 193.59L50.6612 193.087C50.6612 192.92 50.6612 192.771 50.6612 192.603C50.6612 192.435 50.6612 192.286 50.6612 192.118C50.6612 191.951 50.6612 191.802 50.6612 191.634C50.6239 190.982 50.5307 190.311 50.4562 189.659C50.2512 188.336 49.9531 187.013 49.5618 185.69C48.8352 183.063 47.8477 180.473 46.7484 177.939C45.649 175.405 44.4193 172.909 43.0778 170.505C42.3884 169.312 41.6617 168.12 40.9537 166.909L38.7923 163.331C37.3576 160.947 35.8857 158.562 34.451 156.139C34.4137 156.083 34.451 156.028 34.4882 156.009C34.5255 155.99 34.5814 156.009 34.6187 156.028C36.2956 158.263 37.9352 160.537 39.5563 162.81C41.1586 165.102 42.761 167.393 44.3075 169.76C45.0714 170.952 45.7795 172.163 46.4689 173.412C47.1396 174.66 47.7918 175.908 48.4066 177.175C49.6177 179.728 50.6984 182.355 51.5369 185.094C51.9468 186.454 52.3008 187.87 52.543 189.286C52.5989 189.64 52.6548 190.013 52.6921 190.367C52.7107 190.553 52.7294 190.74 52.748 190.907L52.7852 191.466C52.7852 191.653 52.7852 191.839 52.8039 192.025C52.8039 192.212 52.8039 192.398 52.8039 192.584C52.8039 192.771 52.8039 192.957 52.8039 193.143L52.7666 193.684C52.5617 196.553 52.1145 199.329 51.6487 202.087C51.1642 204.844 50.6053 207.602 50.0277 210.341C49.4501 213.08 48.8352 215.819 48.1458 218.539C47.9781 219.229 47.8104 219.899 47.6241 220.589L47.3446 221.614L47.0465 222.638C46.9906 222.806 46.9347 222.974 46.8788 223.16L46.7111 223.682L46.6179 223.943L46.5248 224.185L46.3384 224.669L45.6304 226.644C44.6988 229.271 43.7485 231.917 42.7238 234.526C42.2021 235.83 41.6803 237.134 41.1027 238.42L40.6556 239.389C40.5065 239.706 40.3574 240.022 40.1898 240.339C40.0407 240.656 39.873 240.973 39.7053 241.289L39.4631 241.755C39.3886 241.904 39.314 242.053 39.2395 242.202C38.6433 243.432 38.1402 244.699 37.7303 246.003C37.5253 246.655 37.3576 247.326 37.2086 247.997C37.0595 248.668 36.9477 249.339 36.8546 250.009C36.6682 251.369 36.631 252.73 36.7428 254.09C36.8546 255.45 37.1154 256.791 37.5812 258.058C37.8234 258.692 38.0843 259.326 38.4197 259.922C38.5687 260.22 38.7551 260.499 38.9414 260.797L39.2395 261.226C39.2395 261.226 39.3327 261.375 39.3886 261.431L39.5376 261.636C39.6494 261.766 39.7426 261.897 39.8544 262.027L40.1898 262.4C40.3016 262.53 40.432 262.642 40.5438 262.772C40.6742 262.884 40.786 263.015 40.9164 263.127L41.3077 263.462L41.494 263.63L41.699 263.797L42.1089 264.114L42.5188 264.412C43.6367 265.213 44.8292 265.903 46.0776 266.536C47.326 267.151 48.593 267.71 49.8972 268.195C51.2015 268.679 52.5244 269.126 53.8659 269.517C55.2075 269.909 56.549 270.263 57.9278 270.542C57.9278 270.542 58.0209 270.598 58.0023 270.654C58.0023 270.71 57.9464 270.747 57.8905 270.729L57.8533 270.784Z" fill="black"/>
<path d="M0 150.606C0 149.711 0 148.836 0.0372648 147.941C0.0558972 147.047 0.111794 146.152 0.279486 145.277C0.354015 144.83 0.46581 144.401 0.614869 143.972C0.763928 143.544 0.950252 143.134 1.19247 142.743C1.43469 142.351 1.71418 141.997 2.06819 141.681C2.40358 141.364 2.79486 141.122 3.20477 140.898C4.02459 140.488 4.91895 140.246 5.83194 140.116C6.72629 139.985 7.63928 139.967 8.55226 140.004C10.3596 140.078 12.1297 140.395 13.8811 140.786C15.6326 141.196 17.3468 141.699 19.0423 142.277C20.7378 142.855 22.4148 143.525 24.0358 144.271C25.6754 145.035 27.2592 145.873 28.787 146.86C29.551 147.345 30.2963 147.885 31.0229 148.444C31.7496 149.022 32.4203 149.637 33.0538 150.345C33.6873 151.034 34.2649 151.817 34.7121 152.692C34.9357 153.14 35.122 153.605 35.2525 154.09C35.3829 154.593 35.4761 155.096 35.4574 155.655C35.4574 156.214 35.3084 156.847 34.9544 157.388C34.6003 157.928 34.0786 158.319 33.5569 158.562C33.0352 158.804 32.5321 158.934 32.0291 159.009C31.526 159.083 31.0415 159.121 30.5571 159.121C28.638 159.121 26.8493 158.804 25.0792 158.413C24.2035 158.208 23.3277 158.003 22.452 157.76C21.5949 157.518 20.7378 157.257 19.8808 156.997C18.1852 156.456 16.4897 155.879 14.8314 155.282C13.9929 154.984 13.1731 154.686 12.3346 154.407C11.9247 154.276 11.5148 154.127 11.0863 153.997C10.8813 153.941 10.6764 153.885 10.4528 153.829C10.2478 153.773 10.0242 153.717 9.81927 153.661C8.96218 153.456 8.10509 153.27 7.248 153.121C6.37228 152.972 5.49655 152.841 4.62083 152.73C3.74511 152.599 2.85075 152.506 1.97503 152.301C1.52786 152.208 1.09931 152.078 0.689398 151.817C0.484442 151.686 0.316751 151.519 0.186324 151.314C0.0745295 151.109 0.0186324 150.848 0.0186324 150.624L0 150.606ZM0.204956 150.606C0.204956 150.811 0.260853 151.016 0.354015 151.183C0.46581 151.351 0.614869 151.481 0.78256 151.593C1.15521 151.798 1.56512 151.91 1.99367 151.984C2.85075 152.133 3.74511 152.171 4.62083 152.208C5.51519 152.245 6.39091 152.283 7.28526 152.338C8.17962 152.394 9.07397 152.469 9.96832 152.581C10.1919 152.599 10.4155 152.637 10.6391 152.674C10.8627 152.711 11.0863 152.73 11.3099 152.786C11.757 152.86 12.2042 152.953 12.6514 153.046C13.5271 153.233 14.4028 153.456 15.2599 153.661C16.9927 154.108 18.6883 154.574 20.3838 155.04C21.2223 155.282 22.0794 155.506 22.9365 155.73C23.7936 155.953 24.632 156.158 25.4705 156.344C26.3089 156.531 27.166 156.717 28.0045 156.847C28.8429 156.978 29.6814 157.09 30.5012 157.108C30.9111 157.108 31.3024 157.108 31.6937 157.071C32.0663 157.034 32.4203 156.941 32.7185 156.829C33.3147 156.568 33.5569 156.233 33.6128 155.58C33.6315 155.264 33.5942 154.872 33.501 154.518C33.4079 154.146 33.2961 153.792 33.1284 153.438C32.793 152.73 32.3272 152.059 31.7868 151.425C30.6875 150.158 29.346 149.078 27.9113 148.109C26.4766 147.14 24.9488 146.283 23.3836 145.5C21.8185 144.718 20.2161 144.028 18.5765 143.395C16.9368 142.78 15.2599 142.24 13.5644 141.774C12.7259 141.55 11.8688 141.345 11.0117 141.178C10.1546 141.01 9.29756 140.861 8.42184 140.786C7.56475 140.712 6.68903 140.675 5.83194 140.73C4.97485 140.805 4.11776 140.973 3.3352 141.308C2.94392 141.494 2.5899 141.718 2.25452 141.979C1.91914 142.258 1.63965 142.575 1.39743 142.929C1.15521 143.283 0.968884 143.674 0.801193 144.084C0.652133 144.494 0.521707 144.923 0.447177 145.351C0.111794 147.084 0.167691 148.873 0.186324 150.643L0.204956 150.606Z" fill="black"/>
<path d="M180.157 164.58C180.157 164.58 180.101 164.598 180.101 164.617C180.101 164.636 180.101 164.654 180.101 164.617L180.026 164.543L179.877 164.375L179.579 164.058L178.964 163.406C178.554 162.977 178.144 162.549 177.716 162.139C176.877 161.301 176.039 160.462 175.182 159.642C173.468 158.003 171.716 156.4 169.928 154.854C166.35 151.742 162.624 148.835 158.711 146.171C156.754 144.848 154.742 143.6 152.693 142.445L151.929 142.016L151.537 141.792L151.146 141.587C150.624 141.327 150.103 141.047 149.581 140.786L147.979 140.022C147.438 139.78 146.898 139.557 146.358 139.314C144.196 138.401 141.96 137.637 139.687 137.078L138.83 136.892C138.551 136.836 138.253 136.762 137.973 136.706C137.395 136.594 136.818 136.501 136.24 136.408C135.085 136.221 133.911 136.072 132.737 135.942C128.061 135.457 123.328 135.383 118.614 135.588C113.9 135.811 109.205 136.333 104.584 137.209C102.273 137.656 99.9816 138.178 97.7271 138.83C95.4726 139.482 93.2553 140.246 91.1126 141.159C88.9699 142.091 86.9017 143.171 85.0384 144.513C83.1752 145.854 81.5169 147.475 80.4362 149.394C79.8959 150.363 79.5233 151.388 79.3183 152.469C79.2997 152.599 79.2624 152.73 79.2438 152.879L79.2065 153.289C79.1692 153.549 79.1692 153.829 79.1692 154.108C79.1692 154.649 79.2251 155.133 79.3742 155.599C79.5233 156.046 79.7655 156.456 80.0822 156.81C80.2499 156.978 80.4176 157.145 80.6226 157.295C80.8275 157.444 81.0325 157.574 81.2561 157.686C82.1691 158.152 83.2497 158.412 84.3677 158.562C85.4856 158.711 86.6222 158.729 87.7774 158.711C88.9326 158.692 90.0878 158.599 91.243 158.468C93.5534 158.226 95.8825 157.835 98.1929 157.406C100.503 156.978 102.814 156.456 105.106 155.934C107.416 155.413 109.708 154.835 112 154.276L118.893 152.562C121.204 152.003 123.514 151.444 125.843 150.922C128.172 150.419 130.52 149.935 132.905 149.599C134.098 149.432 135.309 149.301 136.557 149.264C136.874 149.264 137.19 149.264 137.507 149.264C137.824 149.264 138.159 149.301 138.476 149.357L139.37 149.488C139.669 149.543 139.967 149.599 140.265 149.655C141.457 149.879 142.631 150.14 143.786 150.419C144.96 150.699 146.097 151.015 147.252 151.314C149.544 151.947 151.817 152.655 154.09 153.4C158.618 154.891 163.071 156.531 167.468 158.319C169.667 159.232 171.847 160.164 174.008 161.17C175.089 161.673 176.151 162.195 177.213 162.754C177.735 163.033 178.256 163.313 178.778 163.611C179.039 163.76 179.281 163.928 179.542 164.077C179.598 164.114 179.672 164.151 179.728 164.189C179.784 164.226 179.821 164.263 179.859 164.3C179.952 164.375 180.045 164.487 180.157 164.58ZM180.306 164.71C180.175 164.654 180.008 164.598 179.84 164.524C179.765 164.487 179.672 164.449 179.598 164.394C179.523 164.356 179.467 164.319 179.393 164.282C179.132 164.151 178.871 164.002 178.61 163.872C178.089 163.611 177.548 163.35 177.008 163.108C175.927 162.623 174.847 162.158 173.747 161.71C171.549 160.816 169.35 159.978 167.114 159.176C164.897 158.375 162.661 157.611 160.406 156.866C158.152 156.139 155.897 155.413 153.643 154.761C152.506 154.425 151.37 154.108 150.233 153.792L148.519 153.326L146.805 152.879C145.668 152.599 144.513 152.32 143.376 152.077C142.221 151.835 141.085 151.593 139.929 151.425C139.65 151.388 139.352 151.332 139.072 151.295L138.215 151.183C137.694 151.109 137.153 151.109 136.576 151.127C135.458 151.165 134.302 151.314 133.147 151.5C130.855 151.873 128.545 152.376 126.253 152.916C117.068 155.077 107.919 157.704 98.5097 159.381C96.162 159.791 93.777 160.145 91.3921 160.369C90.1996 160.481 88.9885 160.555 87.7588 160.555C86.5477 160.555 85.3179 160.518 84.0696 160.35C82.8398 160.164 81.5728 159.884 80.3803 159.251C80.0822 159.102 79.7841 158.916 79.5233 158.711C79.2438 158.506 78.9829 158.263 78.7407 158.003C78.2563 157.481 77.9022 156.829 77.6787 156.158C77.4737 155.487 77.3992 154.779 77.4178 154.127C77.4178 153.81 77.4178 153.494 77.4737 153.177L77.5296 152.692C77.5482 152.525 77.5855 152.376 77.6228 152.227C77.865 150.978 78.3308 149.748 78.9643 148.668C79.5978 147.568 80.3803 146.581 81.2561 145.705C82.1318 144.829 83.082 144.047 84.0882 143.339C86.0819 141.941 88.2618 140.824 90.4791 139.892C92.6964 138.96 94.9881 138.215 97.2986 137.563C99.609 136.929 101.938 136.408 104.286 135.998C108.981 135.159 113.751 134.675 118.502 134.507C123.272 134.339 128.042 134.47 132.793 135.01C133.986 135.159 135.16 135.308 136.333 135.513C136.93 135.625 137.507 135.718 138.103 135.849C138.402 135.905 138.681 135.979 138.979 136.054L139.855 136.259C142.184 136.855 144.438 137.675 146.618 138.625C147.159 138.867 147.718 139.109 148.239 139.37L149.842 140.153C150.364 140.432 150.885 140.712 151.426 140.991L151.817 141.196L152.208 141.42L152.991 141.867C155.059 143.059 157.053 144.345 159.009 145.705C162.903 148.444 166.611 151.425 170.151 154.574C171.921 156.158 173.654 157.779 175.331 159.456C176.169 160.294 177.008 161.133 177.828 161.99C178.238 162.418 178.648 162.847 179.057 163.276L179.654 163.928L179.952 164.263L180.101 164.431L180.175 164.505C180.175 164.505 180.213 164.543 180.231 164.598C180.25 164.654 180.231 164.692 180.231 164.729L180.306 164.71Z" fill="black"/>
<path d="M69.2378 264.71C67.1323 264.99 65.0827 265.549 62.9773 265.94C62.4556 266.033 61.9152 266.126 61.3749 266.182C60.8346 266.238 60.2942 266.257 59.7166 266.219C59.4371 266.182 59.139 266.145 58.8595 266.07C58.7105 266.033 58.5614 265.977 58.431 265.921C58.2819 265.847 58.1515 265.772 58.0211 265.661C57.7602 265.456 57.518 265.176 57.3876 264.841C57.3503 264.766 57.3317 264.692 57.313 264.617L57.2385 264.394L57.2012 264.151C57.2012 264.151 57.1826 263.984 57.1826 263.909V263.667C57.1826 263.667 57.2012 263.499 57.2199 263.406C57.2385 263.238 57.313 263.071 57.3503 262.922C57.4807 262.623 57.6671 262.325 57.8906 262.102C58.3192 261.636 58.8223 261.319 59.3253 261.04C59.8284 260.779 60.3501 260.574 60.8905 260.406C61.4122 260.238 61.9525 260.089 62.4742 259.959C64.5983 259.456 66.741 259.214 68.8838 259.027L69.6849 258.953C69.9644 258.934 70.2439 258.916 70.5234 258.897C71.0824 258.878 71.6413 258.897 72.2003 258.897C73.3183 258.953 74.4176 259.102 75.4982 259.325C76.5789 259.549 77.6596 259.884 78.703 260.332C79.2247 260.555 79.7464 260.816 80.2495 261.151C80.5104 261.319 80.7526 261.505 81.0134 261.729C81.2557 261.953 81.5165 262.214 81.7401 262.605C81.8519 262.81 81.9451 263.052 81.9823 263.369C81.9823 263.518 81.9823 263.685 81.9637 263.853C81.9264 264.021 81.8705 264.17 81.796 264.319C81.796 264.356 81.7587 264.394 81.7401 264.412L81.6842 264.487C81.6842 264.487 81.6097 264.598 81.5538 264.654C81.4606 264.748 81.3674 264.841 81.2743 264.915C81.1811 264.99 81.088 265.046 80.9948 265.102C80.9016 265.157 80.8085 265.195 80.7153 265.232C80.3613 265.381 80.0259 265.418 79.7092 265.456C79.3924 265.493 79.1129 265.493 78.8148 265.493C77.6782 265.474 76.6162 265.288 75.5541 265.139C74.4921 264.971 73.4487 264.803 72.3866 264.729C71.3246 264.636 70.2812 264.617 69.2191 264.748L69.2378 264.71ZM69.2191 264.524C70.2812 264.356 71.3432 264.282 72.4239 264.207C73.486 264.151 74.5666 264.095 75.6287 264.04C76.169 264.021 76.6907 263.984 77.2124 263.946C77.7341 263.909 78.2558 263.872 78.7403 263.797C78.9825 263.76 79.2247 263.723 79.4297 263.667C79.6346 263.611 79.8396 263.536 79.97 263.481C79.9886 263.481 80.0259 263.443 80.0445 263.425L80.0818 263.387C80.0445 263.425 80.0259 263.518 80.0445 263.574C80.0445 263.63 80.0446 263.611 80.0259 263.574C79.9887 263.518 79.8582 263.369 79.7092 263.257C79.5601 263.126 79.3738 263.015 79.1688 262.884C78.7776 262.642 78.349 262.418 77.8832 262.232C77.436 262.046 76.9702 261.86 76.4858 261.692C76.02 261.524 75.5355 261.375 75.0324 261.245C74.0636 260.984 73.0574 260.779 72.0513 260.667C71.5482 260.611 71.0451 260.574 70.542 260.574C70.2812 260.574 70.039 260.574 69.7781 260.574L68.9955 260.611C66.8901 260.704 64.8033 260.872 62.7537 261.245C62.2506 261.338 61.7476 261.45 61.2631 261.58C60.7787 261.71 60.2942 261.878 59.847 262.083C58.9713 262.474 58.1701 263.089 58.1888 263.872C58.1888 263.928 58.1888 263.965 58.1888 264.021V264.17L58.2447 264.338C58.2447 264.394 58.2633 264.449 58.2819 264.487C58.3378 264.673 58.4496 264.803 58.58 264.934C58.6546 265.008 58.7477 265.046 58.8223 265.12C58.9154 265.176 59.0086 265.232 59.1204 265.269C59.3253 265.362 59.5676 265.418 59.8098 265.456C60.2942 265.549 60.8159 265.567 61.3376 265.586C61.8593 265.586 62.381 265.567 62.9028 265.53C63.4245 265.474 63.9462 265.418 64.4865 265.362C65.0082 265.288 65.5299 265.213 66.0516 265.12C67.095 264.934 68.1385 264.71 69.1819 264.543L69.2191 264.524Z" fill="black"/>
<path d="M43.8423 306.316C44.2895 305.851 44.8298 305.497 45.3888 305.18C45.6683 305.012 45.9478 304.882 46.2273 304.733L46.6558 304.528C46.8049 304.453 46.9539 304.397 47.103 304.341C48.2955 303.876 49.5252 303.503 50.8108 303.335C52.0778 303.149 53.4007 303.13 54.705 303.41C55.9161 303.671 57.1458 303.857 58.3942 303.969C60.8723 304.192 63.3691 304.192 65.8285 303.894C66.4434 303.82 67.0583 303.745 67.6545 303.633C67.9526 303.578 68.2507 303.522 68.5675 303.466C68.642 303.466 68.7166 303.428 68.8097 303.428L69.0892 303.391C69.2755 303.354 69.4432 303.354 69.6295 303.335C70.3189 303.298 70.9711 303.335 71.6232 303.373C71.94 303.391 72.2753 303.428 72.5921 303.447C72.9088 303.484 73.2256 303.503 73.5423 303.54C76.0763 303.838 78.5917 304.192 81.0885 304.584C83.5852 304.975 86.0633 305.441 88.5414 305.944C91.0009 306.466 93.4604 307.006 95.9198 307.528C97.1496 307.788 98.3793 308.049 99.609 308.292C100.839 308.534 102.069 308.757 103.336 308.888C103.336 308.888 103.429 308.944 103.429 309C103.429 309.055 103.391 309.074 103.336 309.093C102.069 309.26 100.783 309.242 99.4973 309.205C98.2303 309.149 96.9446 309.055 95.6962 308.944C93.1622 308.683 90.6655 308.347 88.1688 307.938C85.672 307.546 83.1939 307.062 80.7344 306.559C78.275 306.037 75.7969 305.515 73.3374 305.161C73.0206 305.105 72.7225 305.068 72.4058 305.031C72.089 304.994 71.7909 304.956 71.4928 304.919C71.176 304.882 70.8779 304.863 70.5798 304.845C70.4307 304.845 70.2817 304.845 70.1326 304.826H69.909H69.7041C69.555 304.826 69.406 304.826 69.2942 304.845H69.1078C69.1078 304.845 68.9588 304.882 68.8656 304.9C68.5489 304.956 68.2321 305.012 67.9154 305.049C67.2819 305.143 66.6297 305.199 65.9962 305.254C63.425 305.441 60.8537 305.348 58.3197 304.994C57.0527 304.807 55.7857 304.565 54.5559 304.23C53.4007 303.913 52.1524 303.876 50.9226 303.987C49.6929 304.099 48.4818 304.379 47.2893 304.789C47.1403 304.826 46.9912 304.882 46.8421 304.938L46.4136 305.105C46.1341 305.236 45.836 305.348 45.5565 305.497C44.9975 305.776 44.4572 306.093 44.01 306.503C44.01 306.503 43.8982 306.54 43.861 306.503C43.8237 306.466 43.8237 306.41 43.861 306.372L43.8423 306.316Z" fill="black"/>
<path d="M248.537 244.42C247.475 244.438 246.413 244.532 245.37 244.681C244.327 244.83 243.283 245.016 242.258 245.258C240.209 245.761 238.215 246.432 236.296 247.27C232.458 248.929 228.918 251.258 225.843 254.053C222.769 256.848 220.179 260.127 218.111 263.704C217.067 265.493 216.173 267.356 215.39 269.275C214.999 270.226 214.645 271.194 214.31 272.182C214.161 272.666 213.993 273.169 213.844 273.654C213.695 274.157 213.546 274.641 213.415 275.145C211.235 283.138 210.844 291.597 211.459 299.87C211.515 300.391 211.552 300.913 211.608 301.416C211.664 301.938 211.72 302.441 211.776 302.963C211.85 303.484 211.906 303.987 211.981 304.509C212.055 305.012 212.13 305.534 212.223 306.037C212.391 307.062 212.577 308.068 212.801 309.074L212.968 309.838C213.024 310.099 213.08 310.341 213.155 310.583L213.341 311.329L213.546 312.074C214.608 316.043 216.117 319.899 218.073 323.477C220.049 327.054 222.489 330.371 225.377 333.24C226.812 334.675 228.377 336.017 230.017 337.228C230.837 337.824 231.694 338.401 232.551 338.942C233.427 339.482 234.321 339.985 235.234 340.451C237.06 341.383 238.96 342.165 240.917 342.761C242.873 343.358 244.904 343.768 246.916 343.898C248.947 344.028 251.016 343.917 253.065 343.581C254.09 343.414 255.096 343.19 256.102 342.91C257.108 342.631 258.096 342.314 259.065 341.942C261.021 341.196 262.903 340.283 264.692 339.184C265.586 338.644 266.462 338.047 267.3 337.433C268.139 336.818 268.959 336.147 269.76 335.458C272.927 332.681 275.592 329.365 277.716 325.713C278.778 323.887 279.691 321.968 280.492 320.011C281.275 318.036 281.945 316.024 282.467 313.974C282.746 312.95 282.951 311.906 283.175 310.863C283.361 309.819 283.548 308.776 283.697 307.714L283.809 306.931L283.902 306.149C283.976 305.627 284.014 305.087 284.069 304.565C284.125 304.043 284.144 303.503 284.181 302.981C284.218 302.46 284.237 301.919 284.256 301.398C284.256 301.398 284.312 301.304 284.367 301.304C284.423 301.304 284.461 301.36 284.461 301.416C284.293 305.664 283.809 309.931 282.784 314.068C281.778 318.204 280.287 322.247 278.219 326.011C277.194 327.893 276.02 329.7 274.716 331.396C273.412 333.091 271.958 334.694 270.393 336.166C267.263 339.128 263.592 341.532 259.624 343.265C258.636 343.693 257.611 344.066 256.568 344.42C255.543 344.755 254.481 345.053 253.419 345.295C251.276 345.761 249.096 346.041 246.879 346.022C244.662 346.003 242.463 345.687 240.302 345.165C238.159 344.643 236.054 343.917 234.041 343.041C232.029 342.147 230.091 341.066 228.247 339.855C227.315 339.24 226.439 338.588 225.564 337.898C224.707 337.209 223.85 336.482 223.048 335.737C219.806 332.719 217.067 329.16 214.887 325.322C214.328 324.371 213.825 323.384 213.341 322.396C213.117 321.893 212.856 321.409 212.651 320.887L212.316 320.123L211.999 319.359C211.794 318.856 211.589 318.334 211.403 317.813C211.217 317.291 211.03 316.769 210.844 316.248C210.509 315.204 210.173 314.142 209.894 313.099L209.689 312.297L209.484 311.496C209.428 311.235 209.354 310.956 209.298 310.695L209.13 309.894C208.906 308.813 208.701 307.751 208.534 306.671C208.441 306.13 208.366 305.59 208.291 305.049C208.217 304.509 208.161 303.969 208.087 303.428C208.031 302.888 207.975 302.348 207.937 301.807C207.882 301.267 207.863 300.727 207.807 300.186C207.658 298.006 207.621 295.845 207.658 293.665C207.695 291.504 207.826 289.324 208.031 287.162C208.459 282.84 209.26 278.517 210.565 274.343C210.714 273.822 210.9 273.3 211.068 272.778C211.235 272.256 211.44 271.753 211.627 271.232C212.018 270.207 212.428 269.201 212.894 268.195C213.341 267.188 213.844 266.22 214.347 265.251C214.869 264.3 215.428 263.35 216.024 262.419C216.303 261.953 216.62 261.506 216.937 261.058L217.421 260.388L217.664 260.052L217.906 259.717C218.558 258.841 219.247 258.003 219.974 257.164C221.409 255.525 222.992 253.997 224.669 252.618C228.042 249.86 231.861 247.662 235.923 246.208C237.954 245.482 240.041 244.923 242.165 244.569C243.227 244.401 244.289 244.271 245.37 244.215C246.432 244.159 247.513 244.159 248.575 244.215C248.631 244.215 248.668 244.271 248.668 244.327C248.668 244.382 248.612 244.42 248.575 244.42H248.537Z" fill="black"/>
</g>
<defs>
<clipPath id="clip0_2033_139">
<rect width="300" height="550.326" fill="white"/>
</clipPath>
</defs>
</svg>
