<svg width="1920" height="1020" viewBox="0 0 1920 1020" fill="none" xmlns="http://www.w3.org/2000/svg">
<g opacity="0.04">
<path d="M337.27 1019.82C202.71 989.023 38.163 957.512 -162.318 957.512C-362.798 957.512 -527.345 988.987 -661.905 1019.82L-668.021 1015.13C-532.102 984.008 -365.687 952.177 -162.318 952.177C41.0513 952.177 207.467 984.008 343.386 1015.13L337.27 1019.82Z" fill="#484848"/>
<path d="M3087.93 1019.75C2893.74 971.56 2692.83 921.697 2440.45 921.697C2188.06 921.697 1987.24 971.524 1793.05 1019.75L1786.59 1015.16C1982.32 966.616 2184.66 916.398 2440.53 916.398C2696.4 916.398 2898.75 966.616 3094.47 1015.16L3088.02 1019.75H3087.93Z" fill="#484848"/>
<path d="M485.166 1019.75C290.887 971.561 90.0665 921.699 -162.233 921.699C-414.533 921.699 -615.438 971.525 -809.633 1019.72L-816.089 1015.13C-620.365 966.582 -418.016 916.364 -162.148 916.364C93.7193 916.364 296.069 966.582 491.707 1015.13L485.251 1019.72L485.166 1019.75Z" fill="#484848"/>
<path d="M3236.17 1019.82C3186.13 1008.37 3136.27 995.993 3087.93 984.008C2893.65 935.817 2692.83 885.955 2440.45 885.955C2188.06 885.955 1987.24 935.781 1793.05 984.008C1744.8 995.993 1694.85 1008.37 1644.81 1019.82L1638.69 1015.13C1688.47 1003.71 1738.34 991.334 1786.59 979.384C1982.31 930.802 2184.66 880.584 2440.53 880.584C2696.4 880.584 2898.75 930.802 3094.47 979.384C3142.64 991.334 3192.5 1003.71 3242.28 1015.13L3236.17 1019.82Z" fill="#484848"/>
<path d="M633.404 1019.82C583.369 1008.37 533.419 995.993 485.168 983.972C290.973 935.781 90.068 885.919 -162.232 885.919C-414.532 885.919 -615.437 935.746 -809.716 983.972C-858.052 995.958 -907.918 1008.33 -957.953 1019.82L-964.069 1015.13C-914.204 1003.71 -864.424 991.334 -816.172 979.384C-620.449 930.802 -418.099 880.584 -162.232 880.584C93.6359 880.584 295.985 930.802 491.709 979.349C539.875 991.299 589.74 1003.68 639.606 1015.09L633.489 1019.79L633.404 1019.82Z" fill="#484848"/>
<path d="M3416.43 1019.96C3300.99 1001.08 3192.68 974.192 3087.93 948.229C2893.65 900.039 2692.83 850.176 2440.45 850.176C2188.06 850.176 1987.24 900.003 1793.05 948.194C1688.31 974.192 1579.91 1001.08 1464.55 1019.96L1459.88 1014.99C1574.3 996.278 1682.19 969.497 1786.59 943.606C1982.32 895.024 2184.67 844.842 2440.53 844.842C2696.4 844.842 2898.75 895.06 3094.47 943.642C3198.79 969.533 3306.68 996.278 3421.1 1015.02L3416.43 1020V1019.96Z" fill="#484848"/>
<path d="M813.751 1019.96C698.305 1001.08 589.995 974.192 485.252 948.194C291.058 900.003 90.1523 850.141 -162.232 850.141C-414.617 850.141 -615.437 899.968 -809.632 948.158C-913.695 973.979 -1021.33 1000.69 -1135.92 1019.54L-1140.59 1014.56C-1027.02 995.851 -919.811 969.284 -816.173 943.535C-620.45 894.989 -418.1 844.771 -162.232 844.771C93.6353 844.771 295.985 894.989 491.708 943.535C596.026 969.427 703.912 996.207 818.339 1014.91L813.666 1019.89L813.751 1019.96Z" fill="#484848"/>
<path d="M1139.11 1011.18C883.24 1011.18 680.891 960.962 485.167 912.415C290.973 864.224 90.0674 814.362 -162.232 814.362C-414.532 814.362 -615.437 864.189 -809.632 912.379C-913.695 938.2 -1021.33 964.909 -1135.92 983.759L-1140.59 978.78C-1027.02 960.072 -919.811 933.505 -816.173 907.756C-620.45 859.21 -418.1 808.991 -162.232 808.991C93.6353 808.991 295.985 859.21 491.708 907.756C685.903 955.947 886.808 1005.81 1139.11 1005.81C1391.41 1005.81 1592.31 955.982 1786.51 907.756C1982.23 859.21 2184.58 808.991 2440.45 808.991V814.326C2188.06 814.326 1987.24 864.153 1793.05 912.379C1597.32 960.926 1394.98 1011.14 1139.11 1011.14V1011.18Z" fill="#484848"/>
<path d="M1139.11 975.401C883.24 975.401 680.891 925.183 485.167 876.601C290.973 828.41 90.0674 778.548 -162.232 778.548C-414.532 778.548 -615.437 828.375 -809.632 876.601C-913.695 902.422 -1021.33 929.131 -1135.92 947.981L-1140.59 943.001C-1027.02 924.294 -919.811 897.691 -816.173 871.978C-620.45 823.396 -418.1 773.178 -162.232 773.178C93.6353 773.178 295.985 823.396 491.708 871.978C685.903 920.169 886.808 970.031 1139.11 970.031C1391.41 970.031 1592.31 920.204 1786.51 871.978C1982.23 823.396 2184.58 773.178 2440.45 773.178V778.513C2188.06 778.513 1987.24 828.339 1793.05 876.566C1597.32 925.148 1394.98 975.366 1139.11 975.366V975.401Z" fill="#484848"/>
<path d="M1139.11 939.623C883.24 939.623 680.891 889.405 485.167 840.858C290.973 792.667 90.0674 742.805 -162.232 742.805C-414.532 742.805 -615.437 792.632 -809.632 840.823C-913.695 866.643 -1021.33 893.352 -1135.92 912.202L-1140.59 907.223C-1027.02 888.515 -919.811 861.948 -816.173 836.199C-620.45 787.653 -418.1 737.435 -162.232 737.435C93.6353 737.435 295.985 787.653 491.708 836.199C685.903 884.39 886.808 934.252 1139.11 934.252C1391.41 934.252 1592.31 884.425 1786.51 836.199C1982.23 787.653 2184.58 737.435 2440.45 737.435V742.769C2188.06 742.769 1987.24 792.596 1793.05 840.823C1597.32 889.369 1394.98 939.587 1139.11 939.587V939.623Z" fill="#484848"/>
<path d="M1139.11 903.845C883.24 903.845 680.891 853.627 485.167 805.081C290.973 756.89 90.0674 707.028 -162.232 707.028C-414.532 707.028 -615.437 756.854 -809.632 805.045C-913.695 830.865 -1021.33 857.575 -1135.92 876.424L-1140.59 871.445C-1027.02 852.738 -919.811 826.171 -816.173 800.422C-620.45 751.875 -418.1 701.657 -162.232 701.657C93.6353 701.657 295.985 751.875 491.708 800.422C685.903 848.613 886.808 898.475 1139.11 898.475C1391.41 898.475 1592.31 848.648 1786.51 800.422C1982.23 751.875 2184.58 701.657 2440.45 701.657V706.992C2188.06 706.992 1987.24 756.819 1793.05 805.045C1597.32 853.592 1394.98 903.81 1139.11 903.81V903.845Z" fill="#484848"/>
<path d="M1139.11 868.067C883.24 868.067 680.891 817.848 485.167 769.302C290.973 721.111 90.0674 671.284 -162.232 671.284C-414.532 671.284 -615.437 721.111 -809.632 769.302C-913.695 795.122 -1021.33 821.832 -1135.92 840.681L-1140.59 835.702C-1027.02 816.995 -919.811 790.428 -816.173 764.679C-620.45 716.132 -418.1 665.914 -162.232 665.914C93.6353 665.914 295.985 716.132 491.708 764.679C685.903 812.869 886.808 862.696 1139.11 862.696C1391.41 862.696 1592.31 812.869 1786.51 764.679C1982.23 716.097 2184.58 665.914 2440.45 665.914V671.249C2188.06 671.249 1987.24 721.076 1793.05 769.266C1597.32 817.813 1394.98 868.031 1139.11 868.031V868.067Z" fill="#484848"/>
<path d="M1139.11 832.252C883.24 832.252 680.891 782.034 485.167 733.488C290.973 685.297 90.0674 635.434 -162.232 635.434C-414.532 635.434 -615.437 685.261 -809.632 733.452C-913.695 759.272 -1021.33 785.982 -1135.92 804.831L-1140.59 799.852C-1027.02 781.145 -919.811 754.578 -816.173 728.828C-620.449 680.282 -418.1 630.064 -162.232 630.064C93.6353 630.064 295.985 680.282 491.708 728.828C685.903 777.019 886.808 826.882 1139.11 826.882C1391.41 826.882 1592.31 777.055 1786.51 728.828C1982.23 680.282 2184.58 630.064 2440.45 630.064V635.399C2188.06 635.399 1987.24 685.226 1793.05 733.452C1597.32 781.998 1394.98 832.216 1139.11 832.216V832.252Z" fill="#484848"/>
<path d="M1139.11 796.473C883.24 796.473 680.891 746.255 485.167 697.709C290.973 649.518 90.0674 599.691 -162.232 599.691C-414.532 599.691 -615.437 649.518 -809.632 697.709C-913.695 723.529 -1021.33 750.238 -1135.92 769.088L-1140.59 764.109C-1027.02 745.401 -919.811 718.834 -816.173 693.085C-620.45 644.539 -418.1 594.321 -162.232 594.321C93.6353 594.321 295.985 644.539 491.708 693.085C685.903 741.276 886.808 791.103 1139.11 791.103C1391.41 791.103 1592.31 741.276 1786.51 693.085C1982.23 644.503 2184.58 594.321 2440.45 594.321V599.655C2188.06 599.655 1987.24 649.482 1793.05 697.673C1597.32 746.219 1394.98 796.437 1139.11 796.437V796.473Z" fill="#484848"/>
<path d="M1139.11 760.694C883.24 760.694 680.891 710.476 485.167 661.93C290.973 613.739 90.0674 563.912 -162.232 563.912C-414.532 563.912 -615.437 613.739 -809.632 661.93C-913.695 687.75 -1021.33 714.46 -1135.92 733.309L-1140.59 728.33C-1027.02 709.623 -919.811 683.056 -816.173 657.307C-620.45 608.76 -418.1 558.542 -162.232 558.542C93.6353 558.542 295.985 608.76 491.708 657.307C685.903 705.497 886.808 755.36 1139.11 755.36C1391.41 755.36 1592.31 705.533 1786.51 657.307C1982.23 608.76 2184.58 558.542 2440.45 558.542V563.877C2188.06 563.877 1987.24 613.704 1793.05 661.894C1597.32 710.441 1394.98 760.659 1139.11 760.659V760.694Z" fill="#484848"/>
<path d="M1139.11 724.917C883.24 724.917 680.891 674.699 485.167 626.152C290.973 577.962 90.0674 528.135 -162.232 528.135C-414.532 528.135 -615.437 577.962 -809.632 626.152C-913.695 651.973 -1021.33 678.682 -1135.92 697.532L-1140.59 692.553C-1027.02 673.845 -919.811 647.278 -816.173 621.529C-620.45 572.982 -418.1 522.764 -162.232 522.764C93.6353 522.764 295.985 572.982 491.708 621.529C685.903 669.72 886.808 719.582 1139.11 719.582C1391.41 719.582 1592.31 669.755 1786.51 621.529C1982.23 572.982 2184.58 522.764 2440.45 522.764V528.099C2188.06 528.099 1987.24 577.926 1793.05 626.117C1597.32 674.663 1394.98 724.881 1139.11 724.881V724.917Z" fill="#484848"/>
<path d="M1116.04 93.0503C912.676 93.0503 746.26 49.2648 610.341 6.45775L616.457 0C751.017 42.4157 915.564 85.7119 1116.04 85.7119C1316.53 85.7119 1481.07 42.4157 1615.63 0L1621.75 6.45775C1485.83 49.2648 1319.41 93.0503 1116.04 93.0503V93.0503Z" fill="#484848"/>
</g>
</svg>
