<svg width="128" height="42" viewBox="0 0 128 42" fill="none" xmlns="http://www.w3.org/2000/svg">
<rect width="128" height="42" fill="white"/>
<path d="M29.284 12.832V18.106C29.428 18.106 31.354 18.034 31.57 17.998C32.092 17.908 32.236 17.764 32.398 17.206C32.452 17.026 32.524 16.666 32.542 16.324C32.542 16.234 32.596 16.198 32.668 16.198L33.118 16.216C33.208 16.216 33.244 16.288 33.226 16.36C33.172 16.666 33.172 18.142 33.172 18.412C33.172 19.042 33.244 19.906 33.28 20.284C33.28 20.374 33.244 20.41 33.172 20.428L32.776 20.482C32.686 20.5 32.65 20.446 32.632 20.32C32.596 20.086 32.488 19.672 32.434 19.474C32.326 19.096 32.128 18.826 31.66 18.772C30.814 18.682 29.572 18.682 29.284 18.682V19.798C29.284 20.77 29.32 22.516 29.32 22.876C29.338 23.812 29.788 24.172 30.346 24.28C30.706 24.352 31.228 24.406 31.678 24.406C31.984 24.406 32.884 24.388 33.262 24.352C33.568 24.316 34.36 24.118 34.828 23.722C35.044 23.542 36.052 22.246 36.304 21.832C36.358 21.742 36.412 21.67 36.52 21.724L36.808 21.886C36.898 21.94 36.898 21.994 36.844 22.138L35.89 24.784C35.836 24.946 35.71 25.054 35.494 25.054C35.404 25.054 35.008 25.036 33.928 25.018C32.848 25.018 31.102 25 28.294 25C27.628 25 27.124 25.018 26.764 25.018C26.386 25.036 26.152 25.054 25.99 25.054C25.882 25.054 25.828 25.018 25.828 24.928V24.442C25.828 24.37 25.882 24.352 26.008 24.352H26.728C27.556 24.352 27.628 24.226 27.628 23.56V19.294V17.53C27.628 16.036 27.592 13.786 27.574 13.606C27.502 13.03 27.322 12.904 26.656 12.904H26.008C25.918 12.904 25.864 12.886 25.864 12.778V12.292C25.864 12.238 25.9 12.202 25.99 12.202C26.386 12.202 27.016 12.256 28.204 12.256H28.996C30.778 12.256 32.56 12.238 34.342 12.238C34.63 12.238 34.972 12.202 35.062 12.202C35.152 12.202 35.188 12.238 35.206 12.292C35.278 12.544 36.07 15.01 36.124 15.19C36.142 15.262 36.142 15.316 36.07 15.352L35.8 15.496C35.746 15.532 35.674 15.478 35.656 15.442C35.62 15.37 34.288 13.66 33.856 13.39C33.478 13.138 32.974 12.922 32.488 12.904L29.284 12.832ZM40.1637 24.55V24.91C40.1637 24.982 40.1457 25.054 40.0377 25.054C39.8757 25.054 39.4077 25 38.6337 25C37.7337 25 37.4277 25.054 37.2477 25.054C37.1037 25.054 37.0857 24.982 37.0857 24.892V24.568C37.0857 24.478 37.1037 24.406 37.2297 24.406H37.6977C38.0937 24.406 38.2917 24.334 38.4357 24.19C38.7777 23.884 40.4517 21.652 40.7577 21.31C40.0737 20.248 39.0477 18.79 38.6337 18.34C38.4897 18.16 38.2377 18.088 37.9857 18.088H37.4817C37.3737 18.088 37.3557 18.016 37.3557 17.962V17.602C37.3557 17.476 37.3737 17.44 37.4997 17.44C37.6437 17.44 38.1297 17.494 38.9757 17.494C39.8217 17.494 40.4877 17.44 40.6497 17.44C40.7397 17.44 40.7577 17.494 40.7577 17.602V17.944C40.7577 18.052 40.7217 18.088 40.6497 18.088H40.4877C40.1997 18.088 40.1997 18.376 40.4157 18.7L41.5317 20.464L42.8997 18.664C43.0617 18.448 43.0077 18.088 42.7017 18.088H42.4857C42.3957 18.088 42.3777 18.034 42.3777 17.962V17.584C42.3777 17.476 42.3957 17.44 42.4677 17.44C42.6837 17.44 42.9897 17.494 44.0157 17.494C44.7357 17.494 44.9157 17.44 45.0417 17.44C45.1857 17.44 45.2037 17.512 45.2037 17.62V17.944C45.2037 18.052 45.1857 18.088 45.0597 18.088H44.7717C44.4297 18.088 44.2497 18.16 44.0697 18.304C43.7637 18.556 42.2337 20.446 41.8557 20.914C42.5757 21.976 43.2957 23.074 44.0877 24.028C44.3037 24.28 44.5557 24.406 44.8797 24.406H45.1677C45.2397 24.406 45.2577 24.442 45.2577 24.55V24.91C45.2577 24.982 45.2397 25.054 45.1317 25.054C44.9697 25.054 44.6277 25 43.7457 25C42.7197 25 42.1797 25.054 41.9817 25.054C41.8557 25.054 41.8377 24.982 41.8377 24.892V24.586C41.8377 24.46 41.8557 24.406 41.9817 24.406H42.2517C42.4497 24.406 42.5577 24.136 42.3597 23.83L41.0637 21.76C40.8117 22.12 39.6237 23.722 39.4977 24.01C39.4077 24.208 39.4797 24.406 39.6957 24.406H40.0737C40.1457 24.406 40.1637 24.478 40.1637 24.55ZM46.9223 25.72V19.906C46.9223 19.474 46.7963 19.222 46.2743 18.934L45.8603 18.7C45.7343 18.646 45.7343 18.592 45.7343 18.538V18.394C45.7343 18.34 45.7703 18.304 45.8603 18.268L47.5883 17.404C47.7323 17.332 47.8763 17.26 48.0023 17.26C48.0923 17.26 48.1283 17.35 48.1283 17.62L48.2003 18.484H48.2543C48.7403 17.854 49.6763 17.278 50.8823 17.278C51.8003 17.278 52.4123 17.674 52.9343 18.16C53.6183 18.844 53.9063 19.582 53.9063 20.968C53.9063 23.326 52.2683 25.216 50.0183 25.216C49.5323 25.216 48.7763 25.144 48.2183 24.91V28.708C48.2183 29.212 48.3443 29.302 48.6143 29.302H49.4063C49.5503 29.302 49.5683 29.374 49.5683 29.482V29.788C49.5683 29.896 49.5323 29.95 49.4063 29.95C49.3163 29.95 48.7043 29.896 47.5523 29.896C46.5083 29.896 45.8783 29.95 45.7343 29.95C45.6083 29.95 45.5723 29.896 45.5723 29.788V29.464C45.5723 29.374 45.6083 29.302 45.7883 29.302H46.4903C46.7963 29.302 46.8323 29.122 46.8683 28.852C46.9223 28.456 46.9223 27.484 46.9223 25.72ZM48.2183 19.258V23.2C48.2183 23.596 48.2543 23.92 48.5963 24.154C49.1003 24.514 49.6583 24.64 50.3963 24.64C51.4223 24.64 52.4843 23.866 52.4843 21.634C52.4843 19.114 51.3503 18.106 50.1443 18.106C49.3883 18.106 48.6503 18.538 48.2183 19.258ZM60.6144 21.796V22.858C60.6144 23.884 60.8304 24.208 61.1544 24.208C61.4424 24.208 61.6944 24.064 61.7844 23.938C61.8564 23.848 61.8924 23.812 61.9644 23.866L62.1444 24.01C62.1984 24.064 62.2344 24.154 62.1264 24.334C61.9824 24.604 61.6404 25.216 60.7224 25.216C60.0744 25.216 59.6064 24.748 59.4444 24.01H59.4084C59.0304 24.46 58.4364 24.838 57.6264 25.108C57.2844 25.216 56.9604 25.216 56.5644 25.216C56.1324 25.216 55.4844 24.856 55.4844 23.722C55.4844 22.894 55.8624 22.174 57.2844 21.544C58.0944 21.184 59.0304 20.752 59.3184 20.5V19.348C59.2824 19.042 59.2644 18.574 59.0664 18.34C58.8684 18.106 58.5084 17.944 57.9864 17.944C57.6264 17.944 57.0684 18.088 56.8164 18.322C56.5644 18.556 56.7264 18.826 56.7264 19.15C56.7264 19.78 56.5104 20.176 55.7724 20.176C55.4844 20.176 55.3404 20.014 55.3404 19.6C55.3404 19.024 55.8444 18.34 56.5824 17.908C57.3384 17.458 57.9684 17.278 58.7784 17.278C59.6244 17.278 59.9664 17.53 60.2184 17.764C60.5964 18.142 60.6144 18.556 60.6144 19.042V21.796ZM59.3004 23.254V21.04C58.6524 21.526 56.8884 21.886 56.8884 23.38C56.8884 24.046 57.2844 24.37 57.8244 24.37C58.3464 24.37 59.3004 23.74 59.3004 23.254ZM70.312 19.384V24.028C70.312 24.316 70.474 24.406 70.708 24.406H71.284C71.446 24.406 71.482 24.46 71.482 24.568V24.856C71.482 24.982 71.446 25.054 71.338 25.054C71.212 25.054 70.654 25 69.628 25C68.71 25 68.134 25.054 68.008 25.054C67.9 25.054 67.864 25 67.864 24.856V24.568C67.864 24.442 67.918 24.406 68.098 24.406H68.62C68.818 24.406 68.962 24.316 68.98 23.992C68.998 23.524 69.016 22.948 69.016 22.48V20.104C69.016 19.384 69.016 18.862 68.494 18.484C68.062 18.16 67.63 18.16 67.18 18.16C66.892 18.16 66.262 18.286 65.722 18.862C65.362 19.258 65.308 19.744 65.308 20.086V23.812C65.308 24.298 65.362 24.406 65.74 24.406H66.19C66.334 24.406 66.37 24.46 66.37 24.586V24.892C66.37 25 66.334 25.054 66.244 25.054C66.118 25.054 65.632 25 64.678 25C63.76 25 63.184 25.054 63.076 25.054C62.986 25.054 62.95 25 62.95 24.892V24.568C62.95 24.46 62.986 24.406 63.13 24.406H63.652C63.886 24.406 64.012 24.352 64.012 24.046V19.834C64.012 19.294 63.724 18.988 63.274 18.772L63.13 18.7C63.004 18.646 62.986 18.592 62.986 18.538V18.448C62.986 18.358 63.058 18.304 63.148 18.268L64.696 17.404C64.84 17.332 64.948 17.278 65.02 17.278C65.11 17.278 65.146 17.35 65.164 17.494L65.29 18.592H65.326C65.848 17.944 66.892 17.278 67.792 17.278C68.332 17.278 68.89 17.386 69.322 17.674C69.862 18.034 70.312 18.934 70.312 19.384ZM78.3621 17.548V14.038C78.3621 13.354 78.2361 13.138 77.2281 12.976C77.1201 12.958 77.1021 12.922 77.1021 12.85V12.544C77.1021 12.472 77.1381 12.436 77.2461 12.418C77.9481 12.274 78.8841 12.112 79.2261 12.04C79.3881 12.022 79.5141 11.986 79.6401 11.986C79.7301 11.986 79.7481 12.112 79.7301 12.31C79.6761 13.21 79.6581 15.82 79.6581 18.106V22.084C79.6581 22.75 79.6941 23.542 79.8381 23.722C80.0001 23.902 80.3781 24.01 80.6301 24.028C80.8821 24.046 80.9541 24.064 80.9901 24.154L81.0261 24.298C81.0441 24.406 81.0081 24.46 80.9001 24.496L78.8661 25.18C78.7581 25.216 78.6681 25.162 78.6321 25.036L78.3981 24.244C77.8221 24.82 76.6701 25.216 75.7521 25.216C75.1581 25.216 74.4741 25.252 73.6281 24.388C72.7101 23.488 72.4941 22.678 72.4941 21.472C72.4941 20.356 72.9081 19.258 73.7541 18.412C74.4561 17.656 75.4281 17.278 76.4361 17.278C77.1741 17.278 77.8221 17.386 78.3621 17.548ZM78.3621 22.84V19.744C78.3621 19.492 78.3621 19.15 78.2001 18.862C77.9481 18.376 77.3721 17.89 76.3101 17.89C75.7521 17.89 75.1401 18.052 74.6721 18.538C73.9701 19.294 73.8441 20.248 73.8441 20.932C73.8441 22.966 75.2481 24.442 76.2921 24.442C77.3001 24.442 78.0741 23.92 78.2541 23.452C78.3441 23.182 78.3621 23.038 78.3621 22.84Z" fill="#080808"/>
<path d="M98 12H86C85.2044 12 84.4413 12.3161 83.8787 12.8787C83.3161 13.4413 83 14.2044 83 15V27C83 27.7956 83.3161 28.5587 83.8787 29.1213C84.4413 29.6839 85.2044 30 86 30H98C98.7956 30 99.5587 29.6839 100.121 29.1213C100.684 28.5587 101 27.7956 101 27V15C101 14.2044 100.684 13.4413 100.121 12.8787C99.5587 12.3161 98.7956 12 98 12ZM99 27C99 27.2652 98.8946 27.5196 98.7071 27.7071C98.5196 27.8946 98.2652 28 98 28H86C85.7348 28 85.4804 27.8946 85.2929 27.7071C85.1054 27.5196 85 27.2652 85 27V15C85 14.7348 85.1054 14.4804 85.2929 14.2929C85.4804 14.1054 85.7348 14 86 14H98C98.2652 14 98.5196 14.1054 98.7071 14.2929C98.8946 14.4804 99 14.7348 99 15V27Z" fill="#080808" stroke="white" stroke-width="0.5"/>
<path d="M95 20H93V18C93 17.7348 92.8946 17.4804 92.7071 17.2929C92.5196 17.1054 92.2652 17 92 17C91.7348 17 91.4804 17.1054 91.2929 17.2929C91.1054 17.4804 91 17.7348 91 18V20H89C88.7348 20 88.4804 20.1054 88.2929 20.2929C88.1054 20.4804 88 20.7348 88 21C88 21.2652 88.1054 21.5196 88.2929 21.7071C88.4804 21.8946 88.7348 22 89 22H91V24C91 24.2652 91.1054 24.5196 91.2929 24.7071C91.4804 24.8946 91.7348 25 92 25C92.2652 25 92.5196 24.8946 92.7071 24.7071C92.8946 24.5196 93 24.2652 93 24V22H95C95.2652 22 95.5196 21.8946 95.7071 21.7071C95.8946 21.5196 96 21.2652 96 21C96 20.7348 95.8946 20.4804 95.7071 20.2929C95.5196 20.1054 95.2652 20 95 20Z" fill="#080808" stroke="white" stroke-width="0.5"/>
</svg>
