<svg width="1920" height="1403" viewBox="0 0 1920 1403" fill="none" xmlns="http://www.w3.org/2000/svg">
<path d="M0 187H1920V1403H0V187Z" fill="white"/>
<mask id="mask0_2006_316" style="mask-type:alpha" maskUnits="userSpaceOnUse" x="0" y="0" width="1920" height="1403">
<path d="M1920 0H0V1403H1920V0Z" fill="#080808"/>
</mask>
<g mask="url(#mask0_2006_316)">
<path d="M1920 -217H0V1403H1920V-217Z" fill="url(#paint0_linear_2006_316)"/>
<g opacity="0.04">
<path d="M1582.73 383.178C1717.29 413.977 1881.84 445.488 2082.32 445.488C2282.8 445.488 2447.35 414.013 2581.91 383.178L2588.02 387.872C2452.1 418.992 2285.69 450.823 2082.32 450.823C1878.95 450.823 1712.53 418.992 1576.61 387.872L1582.73 383.178Z" fill="#484848"/>
<path d="M-1167.93 383.25C-973.738 431.44 -772.832 481.303 -520.447 481.303C-268.063 481.303 -67.2424 431.476 126.952 383.25L133.408 387.838C-62.3153 436.384 -264.665 486.602 -520.533 486.602C-776.4 486.602 -978.75 436.384 -1174.47 387.838L-1168.02 383.25H-1167.93Z" fill="#484848"/>
<path d="M1434.83 383.248C1629.11 431.439 1829.93 481.301 2082.23 481.301C2334.53 481.301 2535.44 431.475 2729.63 383.284L2736.09 387.872C2540.37 436.418 2338.02 486.636 2082.15 486.636C1826.28 486.636 1623.93 436.418 1428.29 387.872L1434.75 383.284L1434.83 383.248Z" fill="#484848"/>
<path d="M-1316.17 383.178C-1266.13 394.63 -1216.27 407.007 -1167.93 418.992C-973.652 467.183 -772.832 517.045 -520.447 517.045C-268.062 517.045 -67.2419 467.219 126.952 418.992C175.204 407.007 225.154 394.63 275.189 383.178L281.306 387.873C231.525 399.289 181.66 411.666 133.409 423.616C-62.3148 472.198 -264.664 522.416 -520.532 522.416C-776.4 522.416 -978.749 472.198 -1174.47 423.616C-1222.64 411.666 -1272.5 399.289 -1322.28 387.873L-1316.17 383.178Z" fill="#484848"/>
<path d="M1286.6 383.178C1336.63 394.63 1386.58 407.007 1434.83 419.028C1629.03 467.219 1829.93 517.081 2082.23 517.081C2334.53 517.081 2535.44 467.254 2729.72 419.028C2778.05 407.042 2827.92 394.666 2877.95 383.178L2884.07 387.873C2834.2 399.289 2784.42 411.666 2736.17 423.616C2540.45 472.198 2338.1 522.416 2082.23 522.416C1826.36 522.416 1624.01 472.198 1428.29 423.651C1380.12 411.701 1330.26 399.325 1280.39 387.908L1286.51 383.214L1286.6 383.178Z" fill="#484848"/>
<path d="M-1496.43 383.036C-1380.99 401.921 -1272.68 428.808 -1167.93 454.771C-973.653 502.961 -772.833 552.824 -520.448 552.824C-268.063 552.824 -67.243 502.997 126.951 454.806C231.694 428.808 340.09 401.921 455.451 383.036L460.123 388.015C345.696 406.722 237.81 433.503 133.408 459.394C-62.3159 507.976 -264.665 558.158 -520.533 558.158C-776.401 558.158 -978.75 507.94 -1174.47 459.358C-1278.79 433.467 -1386.68 406.722 -1501.1 387.979L-1496.43 383V383.036Z" fill="#484848"/>
<path d="M1106.25 383.035C1221.69 401.921 1330.01 428.808 1434.75 454.806C1628.94 502.997 1829.85 552.859 2082.23 552.859C2334.62 552.859 2535.44 503.032 2729.63 454.842C2833.69 429.021 2941.33 402.312 3055.92 383.462L3060.59 388.441C2947.02 407.149 2839.81 433.716 2736.17 459.465C2540.45 508.011 2338.1 558.229 2082.23 558.229C1826.36 558.229 1624.02 508.011 1428.29 459.465C1323.97 433.573 1216.09 406.793 1101.66 388.086L1106.33 383.107L1106.25 383.035Z" fill="#484848"/>
<path d="M780.893 391.82C1036.76 391.82 1239.11 442.038 1434.83 490.585C1629.03 538.776 1829.93 588.638 2082.23 588.638C2334.53 588.638 2535.44 538.811 2729.63 490.621C2833.69 464.8 2941.33 438.091 3055.92 419.241L3060.59 424.22C2947.02 442.928 2839.81 469.495 2736.17 495.244C2540.45 543.79 2338.1 594.009 2082.23 594.009C1826.36 594.009 1624.02 543.79 1428.29 495.244C1234.1 447.053 1033.19 397.191 780.893 397.191C528.593 397.191 327.688 447.018 133.493 495.244C-62.2302 543.79 -264.58 594.009 -520.448 594.009V588.674C-268.063 588.674 -67.2424 538.847 126.952 490.621C322.675 442.074 525.025 391.856 780.893 391.856V391.82Z" fill="#484848"/>
<path d="M780.893 427.599C1036.76 427.599 1239.11 477.817 1434.83 526.399C1629.03 574.59 1829.93 624.452 2082.23 624.452C2334.53 624.452 2535.44 574.625 2729.63 526.399C2833.69 500.578 2941.33 473.869 3055.92 455.019L3060.59 459.999C2947.02 478.706 2839.81 505.309 2736.17 531.022C2540.45 579.604 2338.1 629.822 2082.23 629.822C1826.36 629.822 1624.02 579.604 1428.29 531.022C1234.1 482.831 1033.19 432.969 780.893 432.969C528.593 432.969 327.688 482.796 133.493 531.022C-62.2302 579.604 -264.58 629.822 -520.448 629.822V624.487C-268.063 624.487 -67.2424 574.661 126.952 526.434C322.675 477.852 525.025 427.634 780.893 427.634V427.599Z" fill="#484848"/>
<path d="M780.893 463.377C1036.76 463.377 1239.11 513.595 1434.83 562.142C1629.03 610.333 1829.93 660.195 2082.23 660.195C2334.53 660.195 2535.44 610.368 2729.63 562.177C2833.69 536.357 2941.33 509.648 3055.92 490.798L3060.59 495.777C2947.02 514.485 2839.81 541.052 2736.17 566.801C2540.45 615.347 2338.1 665.565 2082.23 665.565C1826.36 665.565 1624.02 615.347 1428.29 566.801C1234.1 518.61 1033.19 468.748 780.893 468.748C528.593 468.748 327.688 518.575 133.493 566.801C-62.2302 615.347 -264.58 665.565 -520.448 665.565V660.231C-268.063 660.231 -67.2424 610.404 126.952 562.177C322.675 513.631 525.025 463.413 780.893 463.413V463.377Z" fill="#484848"/>
<path d="M780.893 499.155C1036.76 499.155 1239.11 549.373 1434.83 597.919C1629.03 646.11 1829.93 695.972 2082.23 695.972C2334.53 695.972 2535.44 646.146 2729.63 597.955C2833.69 572.135 2941.33 545.425 3055.92 526.576L3060.59 531.555C2947.02 550.262 2839.81 576.829 2736.17 602.578C2540.45 651.125 2338.1 701.343 2082.23 701.343C1826.36 701.343 1624.02 651.125 1428.29 602.578C1234.1 554.387 1033.19 504.525 780.893 504.525C528.593 504.525 327.688 554.352 133.493 602.578C-62.2302 651.125 -264.58 701.343 -520.448 701.343V696.008C-268.063 696.008 -67.2424 646.181 126.952 597.955C322.675 549.408 525.025 499.19 780.893 499.19V499.155Z" fill="#484848"/>
<path d="M780.893 534.933C1036.76 534.933 1239.11 585.152 1434.83 633.698C1629.03 681.889 1829.93 731.716 2082.23 731.716C2334.53 731.716 2535.44 681.889 2729.63 633.698C2833.69 607.878 2941.33 581.168 3055.92 562.319L3060.59 567.298C2947.02 586.005 2839.81 612.572 2736.17 638.321C2540.45 686.868 2338.1 737.086 2082.23 737.086C1826.36 737.086 1624.02 686.868 1428.29 638.321C1234.1 590.131 1033.19 540.304 780.893 540.304C528.593 540.304 327.688 590.131 133.493 638.321C-62.2302 686.903 -264.58 737.086 -520.448 737.086V731.751C-268.063 731.751 -67.2424 681.924 126.952 633.734C322.675 585.187 525.025 534.969 780.893 534.969V534.933Z" fill="#484848"/>
<path d="M780.893 570.748C1036.76 570.748 1239.11 620.966 1434.83 669.512C1629.03 717.703 1829.93 767.566 2082.23 767.566C2334.53 767.566 2535.44 717.739 2729.63 669.548C2833.69 643.728 2941.33 617.018 3055.92 598.169L3060.59 603.148C2947.02 621.855 2839.81 648.422 2736.17 674.172C2540.45 722.718 2338.1 772.936 2082.23 772.936C1826.36 772.936 1624.02 722.718 1428.29 674.172C1234.1 625.981 1033.19 576.118 780.893 576.118C528.593 576.118 327.688 625.945 133.493 674.172C-62.2302 722.718 -264.58 772.936 -520.448 772.936V767.601C-268.063 767.601 -67.2424 717.774 126.952 669.548C322.675 621.002 525.025 570.784 780.893 570.784V570.748Z" fill="#484848"/>
<path d="M780.893 606.527C1036.76 606.527 1239.11 656.745 1434.83 705.291C1629.03 753.482 1829.93 803.309 2082.23 803.309C2334.53 803.309 2535.44 753.482 2729.63 705.291C2833.69 679.471 2941.33 652.762 3055.92 633.912L3060.59 638.891C2947.02 657.599 2839.81 684.166 2736.17 709.915C2540.45 758.461 2338.1 808.679 2082.23 808.679C1826.36 808.679 1624.02 758.461 1428.29 709.915C1234.1 661.724 1033.19 611.897 780.893 611.897C528.593 611.897 327.688 661.724 133.493 709.915C-62.2302 758.497 -264.58 808.679 -520.448 808.679V803.345C-268.063 803.345 -67.2424 753.518 126.952 705.327C322.675 656.781 525.025 606.563 780.893 606.563V606.527Z" fill="#484848"/>
<path d="M780.893 642.306C1036.76 642.306 1239.11 692.524 1434.83 741.07C1629.03 789.261 1829.93 839.088 2082.23 839.088C2334.53 839.088 2535.44 789.261 2729.63 741.07C2833.69 715.25 2941.33 688.54 3055.92 669.691L3060.59 674.67C2947.02 693.377 2839.81 719.944 2736.17 745.693C2540.45 794.24 2338.1 844.458 2082.23 844.458C1826.36 844.458 1624.02 794.24 1428.29 745.693C1234.1 697.503 1033.19 647.64 780.893 647.64C528.593 647.64 327.688 697.467 133.493 745.693C-62.2302 794.24 -264.58 844.458 -520.448 844.458V839.123C-268.063 839.123 -67.2424 789.296 126.952 741.106C322.675 692.559 525.025 642.341 780.893 642.341V642.306Z" fill="#484848"/>
<path d="M780.893 678.083C1036.76 678.083 1239.11 728.301 1434.83 776.848C1629.03 825.038 1829.93 874.865 2082.23 874.865C2334.53 874.865 2535.44 825.038 2729.63 776.848C2833.69 751.027 2941.33 724.318 3055.92 705.468L3060.59 710.447C2947.02 729.155 2839.81 755.722 2736.17 781.471C2540.45 830.018 2338.1 880.236 2082.23 880.236C1826.36 880.236 1624.02 830.018 1428.29 781.471C1234.1 733.28 1033.19 683.418 780.893 683.418C528.593 683.418 327.688 733.245 133.493 781.471C-62.2302 830.018 -264.58 880.236 -520.448 880.236V874.901C-268.063 874.901 -67.2424 825.074 126.952 776.883C322.675 728.337 525.025 678.119 780.893 678.119V678.083Z" fill="#484848"/>
<path d="M803.955 1309.95C1007.32 1309.95 1173.74 1353.74 1309.66 1396.54L1303.54 1403C1168.98 1360.58 1004.44 1317.29 803.955 1317.29C603.475 1317.29 438.928 1360.58 304.368 1403L298.251 1396.54C434.171 1353.74 600.586 1309.95 803.955 1309.95Z" fill="#484848"/>
</g>
</g>
<defs>
<linearGradient id="paint0_linear_2006_316" x1="1920" y1="593" x2="0" y2="593" gradientUnits="userSpaceOnUse">
<stop stop-color="white" stop-opacity="0.14"/>
<stop offset="1" stop-color="#4356A6" stop-opacity="0"/>
</linearGradient>
</defs>
</svg>
