<svg width="1920" height="1020" viewBox="0 0 1920 1020" fill="none" xmlns="http://www.w3.org/2000/svg">
<g opacity="0.04">
<path d="M1582.73 0.177834C1717.29 30.9773 1881.84 62.488 2082.32 62.488C2282.8 62.488 2447.35 31.0128 2581.91 0.177834L2588.02 4.87246C2452.1 35.992 2285.69 67.8228 2082.32 67.8228C1878.95 67.8228 1712.53 35.992 1576.61 4.87246L1582.73 0.177834Z" fill="#484848"/>
<path d="M-1167.93 0.249657C-973.738 48.4405 -772.832 98.3029 -520.447 98.3029C-268.063 98.3029 -67.2424 48.476 126.952 0.249657L133.408 4.83759C-62.3153 53.3841 -264.665 103.602 -520.533 103.602C-776.4 103.602 -978.75 53.3841 -1174.47 4.83759L-1168.02 0.249657H-1167.93Z" fill="#484848"/>
<path d="M1434.83 0.248245C1629.11 48.4391 1829.93 98.3015 2082.23 98.3015C2334.53 98.3015 2535.44 48.4747 2729.63 0.283844L2736.09 4.87178C2540.37 53.4182 2338.02 103.636 2082.15 103.636C1826.28 103.636 1623.93 53.4182 1428.29 4.87178L1434.75 0.283844L1434.83 0.248245Z" fill="#484848"/>
<path d="M-1316.17 0.178131C-1266.13 11.6301 -1216.27 24.0068 -1167.93 35.9923C-973.652 84.1831 -772.832 134.045 -520.447 134.045C-268.062 134.045 -67.2419 84.2187 126.952 35.9923C175.204 24.0068 225.154 11.6301 275.189 0.178131L281.306 4.87276C231.525 16.2892 181.66 28.6658 133.409 40.6157C-62.3148 89.1977 -264.664 139.416 -520.532 139.416C-776.4 139.416 -978.749 89.1977 -1174.47 40.6157C-1222.64 28.6658 -1272.5 16.2892 -1322.28 4.87276L-1316.17 0.178131Z" fill="#484848"/>
<path d="M1286.6 0.178131C1336.63 11.6301 1386.58 24.0068 1434.83 36.0278C1629.03 84.2186 1829.93 134.081 2082.23 134.081C2334.53 134.081 2535.44 84.2542 2729.72 36.0278C2778.05 24.0423 2827.92 11.6657 2877.95 0.178131L2884.07 4.87276C2834.2 16.2892 2784.42 28.6658 2736.17 40.6157C2540.45 89.1977 2338.1 139.416 2082.23 139.416C1826.36 139.416 1624.01 89.1978 1428.29 40.6513C1380.12 28.7014 1330.26 16.3247 1280.39 4.90825L1286.51 0.213623L1286.6 0.178131Z" fill="#484848"/>
<path d="M-1496.43 0.035553C-1380.99 18.9207 -1272.68 45.808 -1167.93 71.7706C-973.653 119.961 -772.833 169.824 -520.448 169.824C-268.063 169.824 -67.243 119.997 126.951 71.8061C231.694 45.8079 340.09 18.9207 455.451 0.035553L460.123 5.01466C345.696 23.7219 237.81 50.5025 133.408 76.394C-62.3159 124.976 -264.665 175.158 -520.533 175.158C-776.401 175.158 -978.75 124.94 -1174.47 76.3584C-1278.79 50.4669 -1386.68 23.722 -1501.1 4.97917L-1496.43 -4.57764e-05V0.035553Z" fill="#484848"/>
<path d="M1106.25 0.0354156C1221.69 18.9205 1330.01 45.8078 1434.75 71.8059C1628.94 119.997 1829.85 169.859 2082.23 169.859C2334.62 169.859 2535.44 120.032 2729.63 71.8415C2833.69 46.0212 2941.33 19.3117 3055.92 0.462173L3060.59 5.44128C2947.02 24.1486 2839.81 50.7158 2736.17 76.4649C2540.45 125.011 2338.1 175.229 2082.23 175.229C1826.36 175.229 1624.02 125.011 1428.29 76.4649C1323.97 50.5735 1216.09 23.793 1101.66 5.08571L1106.33 0.106506L1106.25 0.0354156Z" fill="#484848"/>
<path d="M780.893 8.8205C1036.76 8.8205 1239.11 59.0385 1434.83 107.585C1629.03 155.776 1829.93 205.638 2082.23 205.638C2334.53 205.638 2535.44 155.811 2729.63 107.621C2833.69 81.8002 2941.33 55.0908 3055.92 36.2412L3060.59 41.2204C2947.02 59.9277 2839.81 86.4948 2736.17 112.244C2540.45 160.79 2338.1 211.009 2082.23 211.009C1826.36 211.009 1624.02 160.79 1428.29 112.244C1234.1 64.0532 1033.19 14.1909 780.893 14.1909C528.593 14.1909 327.688 64.0176 133.493 112.244C-62.2302 160.79 -264.58 211.009 -520.448 211.009V205.674C-268.063 205.674 -67.2424 155.847 126.952 107.621C322.675 59.0741 525.025 8.85609 780.893 8.85609V8.8205Z" fill="#484848"/>
<path d="M780.893 44.5987C1036.76 44.5987 1239.11 94.8167 1434.83 143.399C1629.03 191.59 1829.93 241.452 2082.23 241.452C2334.53 241.452 2535.44 191.625 2729.63 143.399C2833.69 117.578 2941.33 90.869 3055.92 72.0194L3060.59 76.9986C2947.02 95.7059 2839.81 122.309 2736.17 148.022C2540.45 196.604 2338.1 246.822 2082.23 246.822C1826.36 246.822 1624.02 196.604 1428.29 148.022C1234.1 99.8315 1033.19 49.9691 780.893 49.9691C528.593 49.9691 327.688 99.7959 133.493 148.022C-62.2302 196.604 -264.58 246.822 -520.448 246.822V241.487C-268.063 241.487 -67.2424 191.661 126.952 143.434C322.675 94.8523 525.025 44.6343 780.893 44.6343V44.5987Z" fill="#484848"/>
<path d="M780.893 80.3774C1036.76 80.3774 1239.11 130.595 1434.83 179.142C1629.03 227.333 1829.93 277.195 2082.23 277.195C2334.53 277.195 2535.44 227.368 2729.63 179.177C2833.69 153.357 2941.33 126.648 3055.92 107.798L3060.59 112.777C2947.02 131.485 2839.81 158.052 2736.17 183.801C2540.45 232.347 2338.1 282.565 2082.23 282.565C1826.36 282.565 1624.02 232.347 1428.29 183.801C1234.1 135.61 1033.19 85.7478 780.893 85.7478C528.593 85.7478 327.688 135.575 133.493 183.801C-62.2302 232.347 -264.58 282.565 -520.448 282.565V277.231C-268.063 277.231 -67.2424 227.404 126.952 179.177C322.675 130.631 525.025 80.413 780.893 80.413V80.3774Z" fill="#484848"/>
<path d="M780.893 116.155C1036.76 116.155 1239.11 166.373 1434.83 214.919C1629.03 263.11 1829.93 312.972 2082.23 312.972C2334.53 312.972 2535.44 263.146 2729.63 214.955C2833.69 189.135 2941.33 162.425 3055.92 143.576L3060.59 148.555C2947.02 167.262 2839.81 193.829 2736.17 219.578C2540.45 268.125 2338.1 318.343 2082.23 318.343C1826.36 318.343 1624.02 268.125 1428.29 219.578C1234.1 171.387 1033.19 121.525 780.893 121.525C528.593 121.525 327.688 171.352 133.493 219.578C-62.2302 268.125 -264.58 318.343 -520.448 318.343V313.008C-268.063 313.008 -67.2424 263.181 126.952 214.955C322.675 166.408 525.025 116.19 780.893 116.19V116.155Z" fill="#484848"/>
<path d="M780.893 151.933C1036.76 151.933 1239.11 202.152 1434.83 250.698C1629.03 298.889 1829.93 348.716 2082.23 348.716C2334.53 348.716 2535.44 298.889 2729.63 250.698C2833.69 224.878 2941.33 198.168 3055.92 179.319L3060.59 184.298C2947.02 203.005 2839.81 229.572 2736.17 255.321C2540.45 303.868 2338.1 354.086 2082.23 354.086C1826.36 354.086 1624.02 303.868 1428.29 255.321C1234.1 207.131 1033.19 157.304 780.893 157.304C528.593 157.304 327.688 207.131 133.493 255.321C-62.2302 303.903 -264.58 354.086 -520.448 354.086V348.751C-268.063 348.751 -67.2424 298.924 126.952 250.734C322.675 202.187 525.025 151.969 780.893 151.969V151.933Z" fill="#484848"/>
<path d="M780.893 187.748C1036.76 187.748 1239.11 237.966 1434.83 286.512C1629.03 334.703 1829.93 384.566 2082.23 384.566C2334.53 384.566 2535.44 334.739 2729.63 286.548C2833.69 260.728 2941.33 234.018 3055.92 215.169L3060.59 220.148C2947.02 238.855 2839.81 265.422 2736.17 291.172C2540.45 339.718 2338.1 389.936 2082.23 389.936C1826.36 389.936 1624.02 339.718 1428.29 291.172C1234.1 242.981 1033.19 193.118 780.893 193.118C528.593 193.118 327.688 242.945 133.493 291.172C-62.2302 339.718 -264.58 389.936 -520.448 389.936V384.601C-268.063 384.601 -67.2424 334.774 126.952 286.548C322.675 238.002 525.025 187.784 780.893 187.784V187.748Z" fill="#484848"/>
<path d="M780.893 223.527C1036.76 223.527 1239.11 273.745 1434.83 322.291C1629.03 370.482 1829.93 420.309 2082.23 420.309C2334.53 420.309 2535.44 370.482 2729.63 322.291C2833.69 296.471 2941.33 269.762 3055.92 250.912L3060.59 255.891C2947.02 274.599 2839.81 301.166 2736.17 326.915C2540.45 375.461 2338.1 425.679 2082.23 425.679C1826.36 425.679 1624.02 375.461 1428.29 326.915C1234.1 278.724 1033.19 228.897 780.893 228.897C528.593 228.897 327.688 278.724 133.493 326.915C-62.2302 375.497 -264.58 425.679 -520.448 425.679V420.345C-268.063 420.345 -67.2424 370.518 126.952 322.327C322.675 273.781 525.025 223.563 780.893 223.563V223.527Z" fill="#484848"/>
<path d="M780.893 259.306C1036.76 259.306 1239.11 309.524 1434.83 358.07C1629.03 406.261 1829.93 456.088 2082.23 456.088C2334.53 456.088 2535.44 406.261 2729.63 358.07C2833.69 332.25 2941.33 305.54 3055.92 286.691L3060.59 291.67C2947.02 310.377 2839.81 336.944 2736.17 362.693C2540.45 411.24 2338.1 461.458 2082.23 461.458C1826.36 461.458 1624.02 411.24 1428.29 362.693C1234.1 314.503 1033.19 264.64 780.893 264.64C528.593 264.64 327.688 314.467 133.493 362.693C-62.2302 411.24 -264.58 461.458 -520.448 461.458V456.123C-268.063 456.123 -67.2424 406.296 126.952 358.106C322.675 309.559 525.025 259.341 780.893 259.341V259.306Z" fill="#484848"/>
<path d="M780.893 295.083C1036.76 295.083 1239.11 345.301 1434.83 393.848C1629.03 442.038 1829.93 491.865 2082.23 491.865C2334.53 491.865 2535.44 442.038 2729.63 393.848C2833.69 368.027 2941.33 341.318 3055.92 322.468L3060.59 327.447C2947.02 346.155 2839.81 372.722 2736.17 398.471C2540.45 447.018 2338.1 497.236 2082.23 497.236C1826.36 497.236 1624.02 447.018 1428.29 398.471C1234.1 350.28 1033.19 300.418 780.893 300.418C528.593 300.418 327.688 350.245 133.493 398.471C-62.2302 447.018 -264.58 497.236 -520.448 497.236V491.901C-268.063 491.901 -67.2424 442.074 126.952 393.883C322.675 345.337 525.025 295.119 780.893 295.119V295.083Z" fill="#484848"/>
<path d="M803.955 926.95C1007.32 926.95 1173.74 970.735 1309.66 1013.54L1303.54 1020C1168.98 977.584 1004.44 934.288 803.955 934.288C603.475 934.288 438.928 977.584 304.368 1020L298.251 1013.54C434.171 970.735 600.586 926.95 803.955 926.95Z" fill="#484848"/>
</g>
</svg>
