<svg width="1903" height="1403" viewBox="0 0 1903 1403" fill="none" xmlns="http://www.w3.org/2000/svg">
<g opacity="0.75">
<mask id="mask0_2024_1227" style="mask-type:alpha" maskUnits="userSpaceOnUse" x="-17" y="0" width="1920" height="1403">
<path d="M-17 1403L1903 1403L1903 0L-17 0L-17 1403Z" fill="white"/>
</mask>
<g mask="url(#mask0_2024_1227)">
<path d="M-17 1620L1903 1620L1903 5.79357e-05L-17 5.79357e-05L-17 1620Z" fill="white"/>
<g opacity="0.04">
<path d="M320.27 1019.82C185.71 989.023 21.163 957.512 -179.318 957.512C-379.798 957.512 -544.345 988.987 -678.905 1019.82L-685.021 1015.13C-549.102 984.008 -382.687 952.177 -179.318 952.177C24.0513 952.177 190.467 984.008 326.386 1015.13L320.27 1019.82Z" fill="#484848"/>
<path d="M3070.93 1019.75C2876.74 971.56 2675.83 921.697 2423.45 921.697C2171.06 921.697 1970.24 971.524 1776.05 1019.75L1769.59 1015.16C1965.32 966.616 2167.66 916.398 2423.53 916.398C2679.4 916.398 2881.75 966.616 3077.47 1015.16L3071.02 1019.75H3070.93Z" fill="#484848"/>
<path d="M468.166 1019.75C273.887 971.561 73.0665 921.699 -179.233 921.699C-431.533 921.699 -632.438 971.525 -826.633 1019.72L-833.089 1015.13C-637.365 966.582 -435.016 916.364 -179.148 916.364C76.7193 916.364 279.069 966.582 474.707 1015.13L468.251 1019.72L468.166 1019.75Z" fill="#484848"/>
<path d="M3219.17 1019.82C3169.13 1008.37 3119.27 995.993 3070.93 984.008C2876.65 935.817 2675.83 885.955 2423.45 885.955C2171.06 885.955 1970.24 935.781 1776.05 984.008C1727.8 995.993 1677.85 1008.37 1627.81 1019.82L1621.69 1015.13C1671.47 1003.71 1721.34 991.334 1769.59 979.384C1965.31 930.802 2167.66 880.584 2423.53 880.584C2679.4 880.584 2881.75 930.802 3077.47 979.384C3125.64 991.334 3175.5 1003.71 3225.28 1015.13L3219.17 1019.82Z" fill="#484848"/>
<path d="M616.404 1019.82C566.369 1008.37 516.419 995.993 468.168 983.972C273.973 935.781 73.068 885.919 -179.232 885.919C-431.532 885.919 -632.437 935.746 -826.716 983.972C-875.052 995.958 -924.918 1008.33 -974.953 1019.82L-981.069 1015.13C-931.204 1003.71 -881.424 991.334 -833.172 979.384C-637.449 930.802 -435.099 880.584 -179.232 880.584C76.6359 880.584 278.985 930.802 474.709 979.349C522.875 991.299 572.74 1003.68 622.606 1015.09L616.489 1019.79L616.404 1019.82Z" fill="#484848"/>
<path d="M3399.43 1019.96C3283.99 1001.08 3175.68 974.192 3070.93 948.229C2876.65 900.039 2675.83 850.176 2423.45 850.176C2171.06 850.176 1970.24 900.003 1776.05 948.194C1671.31 974.192 1562.91 1001.08 1447.55 1019.96L1442.88 1014.99C1557.3 996.278 1665.19 969.497 1769.59 943.606C1965.32 895.024 2167.67 844.842 2423.53 844.842C2679.4 844.842 2881.75 895.06 3077.47 943.642C3181.79 969.533 3289.68 996.278 3404.1 1015.02L3399.43 1020V1019.96Z" fill="#484848"/>
<path d="M796.751 1019.96C681.305 1001.08 572.995 974.192 468.252 948.194C274.058 900.003 73.1523 850.141 -179.232 850.141C-431.617 850.141 -632.437 899.968 -826.632 948.158C-930.695 973.979 -1038.33 1000.69 -1152.92 1019.54L-1157.59 1014.56C-1044.02 995.851 -936.811 969.284 -833.173 943.535C-637.45 894.989 -435.1 844.771 -179.232 844.771C76.6353 844.771 278.985 894.989 474.708 943.535C579.026 969.427 686.912 996.207 801.339 1014.91L796.666 1019.89L796.751 1019.96Z" fill="#484848"/>
<path d="M1122.11 1011.18C866.24 1011.18 663.891 960.962 468.167 912.415C273.973 864.224 73.0674 814.362 -179.232 814.362C-431.532 814.362 -632.437 864.189 -826.632 912.379C-930.695 938.2 -1038.33 964.909 -1152.92 983.759L-1157.59 978.78C-1044.02 960.072 -936.811 933.505 -833.173 907.756C-637.45 859.21 -435.1 808.991 -179.232 808.991C76.6353 808.991 278.985 859.21 474.708 907.756C668.903 955.947 869.808 1005.81 1122.11 1005.81C1374.41 1005.81 1575.31 955.982 1769.51 907.756C1965.23 859.21 2167.58 808.991 2423.45 808.991V814.326C2171.06 814.326 1970.24 864.153 1776.05 912.379C1580.32 960.926 1377.98 1011.14 1122.11 1011.14V1011.18Z" fill="#484848"/>
<path d="M1122.11 975.401C866.24 975.401 663.891 925.183 468.167 876.601C273.973 828.41 73.0674 778.548 -179.232 778.548C-431.532 778.548 -632.437 828.375 -826.632 876.601C-930.695 902.422 -1038.33 929.131 -1152.92 947.981L-1157.59 943.001C-1044.02 924.294 -936.811 897.691 -833.173 871.978C-637.45 823.396 -435.1 773.178 -179.232 773.178C76.6353 773.178 278.985 823.396 474.708 871.978C668.903 920.169 869.808 970.031 1122.11 970.031C1374.41 970.031 1575.31 920.204 1769.51 871.978C1965.23 823.396 2167.58 773.178 2423.45 773.178V778.513C2171.06 778.513 1970.24 828.339 1776.05 876.566C1580.32 925.148 1377.98 975.366 1122.11 975.366V975.401Z" fill="#484848"/>
<path d="M1122.11 939.623C866.24 939.623 663.891 889.405 468.167 840.858C273.973 792.667 73.0674 742.805 -179.232 742.805C-431.532 742.805 -632.437 792.632 -826.632 840.823C-930.695 866.643 -1038.33 893.352 -1152.92 912.202L-1157.59 907.223C-1044.02 888.515 -936.811 861.948 -833.173 836.199C-637.45 787.653 -435.1 737.435 -179.232 737.435C76.6353 737.435 278.985 787.653 474.708 836.199C668.903 884.39 869.808 934.252 1122.11 934.252C1374.41 934.252 1575.31 884.425 1769.51 836.199C1965.23 787.653 2167.58 737.435 2423.45 737.435V742.769C2171.06 742.769 1970.24 792.596 1776.05 840.823C1580.32 889.369 1377.98 939.587 1122.11 939.587V939.623Z" fill="#484848"/>
<path d="M1122.11 903.845C866.24 903.845 663.891 853.627 468.167 805.081C273.973 756.89 73.0674 707.028 -179.232 707.028C-431.532 707.028 -632.437 756.854 -826.632 805.045C-930.695 830.865 -1038.33 857.575 -1152.92 876.424L-1157.59 871.445C-1044.02 852.738 -936.811 826.171 -833.173 800.422C-637.45 751.875 -435.1 701.657 -179.232 701.657C76.6353 701.657 278.985 751.875 474.708 800.422C668.903 848.613 869.808 898.475 1122.11 898.475C1374.41 898.475 1575.31 848.648 1769.51 800.422C1965.23 751.875 2167.58 701.657 2423.45 701.657V706.992C2171.06 706.992 1970.24 756.819 1776.05 805.045C1580.32 853.592 1377.98 903.81 1122.11 903.81V903.845Z" fill="#484848"/>
<path d="M1122.11 868.067C866.24 868.067 663.891 817.848 468.167 769.302C273.973 721.111 73.0674 671.284 -179.232 671.284C-431.532 671.284 -632.437 721.111 -826.632 769.302C-930.695 795.122 -1038.33 821.832 -1152.92 840.681L-1157.59 835.702C-1044.02 816.995 -936.811 790.428 -833.173 764.679C-637.45 716.132 -435.1 665.914 -179.232 665.914C76.6353 665.914 278.985 716.132 474.708 764.679C668.903 812.869 869.808 862.696 1122.11 862.696C1374.41 862.696 1575.31 812.869 1769.51 764.679C1965.23 716.097 2167.58 665.914 2423.45 665.914V671.249C2171.06 671.249 1970.24 721.076 1776.05 769.266C1580.32 817.813 1377.98 868.031 1122.11 868.031V868.067Z" fill="#484848"/>
<path d="M1122.11 832.252C866.24 832.252 663.891 782.034 468.167 733.488C273.973 685.297 73.0674 635.434 -179.232 635.434C-431.532 635.434 -632.437 685.261 -826.632 733.452C-930.695 759.272 -1038.33 785.982 -1152.92 804.831L-1157.59 799.852C-1044.02 781.145 -936.811 754.578 -833.173 728.828C-637.45 680.282 -435.1 630.064 -179.232 630.064C76.6353 630.064 278.985 680.282 474.708 728.828C668.903 777.019 869.808 826.882 1122.11 826.882C1374.41 826.882 1575.31 777.055 1769.51 728.828C1965.23 680.282 2167.58 630.064 2423.45 630.064V635.399C2171.06 635.399 1970.24 685.226 1776.05 733.452C1580.32 781.998 1377.98 832.216 1122.11 832.216V832.252Z" fill="#484848"/>
<path d="M1122.11 796.473C866.24 796.473 663.891 746.255 468.167 697.709C273.973 649.518 73.0674 599.691 -179.232 599.691C-431.532 599.691 -632.437 649.518 -826.632 697.709C-930.695 723.529 -1038.33 750.238 -1152.92 769.088L-1157.59 764.109C-1044.02 745.401 -936.811 718.834 -833.173 693.085C-637.45 644.539 -435.1 594.321 -179.232 594.321C76.6353 594.321 278.985 644.539 474.708 693.085C668.903 741.276 869.808 791.103 1122.11 791.103C1374.41 791.103 1575.31 741.276 1769.51 693.085C1965.23 644.503 2167.58 594.321 2423.45 594.321V599.655C2171.06 599.655 1970.24 649.482 1776.05 697.673C1580.32 746.219 1377.98 796.437 1122.11 796.437V796.473Z" fill="#484848"/>
<path d="M1122.11 760.694C866.24 760.694 663.891 710.476 468.167 661.93C273.973 613.739 73.0674 563.912 -179.232 563.912C-431.532 563.912 -632.437 613.739 -826.632 661.93C-930.695 687.75 -1038.33 714.46 -1152.92 733.309L-1157.59 728.33C-1044.02 709.623 -936.811 683.056 -833.173 657.307C-637.45 608.76 -435.1 558.542 -179.232 558.542C76.6353 558.542 278.985 608.76 474.708 657.307C668.903 705.497 869.808 755.36 1122.11 755.36C1374.41 755.36 1575.31 705.533 1769.51 657.307C1965.23 608.76 2167.58 558.542 2423.45 558.542V563.877C2171.06 563.877 1970.24 613.704 1776.05 661.894C1580.32 710.441 1377.98 760.659 1122.11 760.659V760.694Z" fill="#484848"/>
<path d="M1122.11 724.917C866.24 724.917 663.891 674.699 468.167 626.152C273.973 577.962 73.0674 528.135 -179.232 528.135C-431.532 528.135 -632.437 577.962 -826.632 626.152C-930.695 651.973 -1038.33 678.682 -1152.92 697.532L-1157.59 692.553C-1044.02 673.845 -936.811 647.278 -833.173 621.529C-637.45 572.982 -435.1 522.764 -179.232 522.764C76.6353 522.764 278.985 572.982 474.708 621.529C668.903 669.72 869.808 719.582 1122.11 719.582C1374.41 719.582 1575.31 669.755 1769.51 621.529C1965.23 572.982 2167.58 522.764 2423.45 522.764V528.099C2171.06 528.099 1970.24 577.926 1776.05 626.117C1580.32 674.663 1377.98 724.881 1122.11 724.881V724.917Z" fill="#484848"/>
</g>
</g>
</g>
</svg>
